<svg xmlns="http://www.w3.org/2000/svg" viewBox="0 0 340 340" id="beer-mug">
  <path fill="#e4efff" d="M268.457 133H281.1a25.668 25.668 0 0 1 25.669 25.669v97.883a41.866 41.866 0 0 1-13.919 31.232c-14.665 7.131-28-3.627-23.125-19.483a22.433 22.433 0 0 0 12.875-20.528l-.712-76.564a12.727 12.727 0 0 0-12.728-12.727h-.7c-2.578-7.994-2.304-16.543-.003-25.482Z"></path>
  <path fill="#8ca0c9" d="M269.726 268.3q-.783.366-1.6.675c-13.339 5.007-30.66 5.419-30.66 5.419v25.571h15.829c10.683-.187 19.252-1.813 26.121-4.238a40.356 40.356 0 0 0 13.434-7.946c-14.998-2.256-20.873-11.581-23.124-19.481ZM248.554 158.482h19.903v-25.486h-20.759l.856 25.486z"></path>
  <path fill="#fc9654" d="M213.1 60.926a28.493 28.493 0 0 0-11.041 2.213A34.664 34.664 0 0 0 134.165 73v45.079H213.1a28.575 28.575 0 0 0 0-57.15Z"></path>
  <path fill="#d88783" d="M219.289 95.756c-5.938 0-9.695 3.892-10.885 10.5-.881-6.517-4.379-10.5-10.884-10.5h-87.507v215.555a14.028 14.028 0 0 0 11.743 13.646 309.707 309.707 0 0 0 110.913 0 14.028 14.028 0 0 0 11.743-13.646V106.524a10.969 10.969 0 0 0-11.159-10.768Z"></path>
  <path fill="#874f4f" d="M110.013 294.785v16.526a14.028 14.028 0 0 0 11.743 13.646 309.707 309.707 0 0 0 110.913 0 14.028 14.028 0 0 0 11.743-13.646v-16.526zm121.119-145.801H110.013v28.008c5.292 3.755 14.473 7.613 29.9 7.613h77.662a46.141 46.141 0 0 0 15.69-2.641 37.558 37.558 0 0 0 11.143-6.151v-25.371a41.518 41.518 0 0 0-13.276-1.458zm-53.744-53.228h-67.375v52.153h40.4v-22.028c28.564-3.599 27.628-24.966 26.975-30.125z"></path>
  <path fill="#e4efff" d="M245.837 129.357c-5.6 1.441-14.5 2.779-28.2 2.779l-42.777.285-38.242-.255-41.33 14.859v2.962a14.949 14.949 0 0 0 6.4 12.408c13.27 9.012 37.235 8.814 37.235 8.814H210.8s23.966.2 37.236-8.814a14.949 14.949 0 0 0 6.4-12.408v-13.961a6.881 6.881 0 0 0-8.599-6.669Z"></path>
  <path fill="#8ca0c9" d="M132.084 132.136c-13.7 0-22.595-1.338-28.2-2.779a6.881 6.881 0 0 0-8.6 6.669v11c27.622 10.6 41.329-14.858 41.33-14.859Z"></path>
  <path fill="#e4efff" d="M245.837 266.256c-5.6 1.44-14.5 2.779-28.2 2.779l-42.777.285-42.776-.285c-13.7 0-22.595-1.339-28.2-2.779a6.881 6.881 0 0 0-8.6 6.669v13.96a14.951 14.951 0 0 0 6.4 12.409c13.27 9.012 37.235 8.814 37.235 8.814H210.8s23.966.2 37.236-8.814a14.951 14.951 0 0 0 6.4-12.409v-13.96a6.881 6.881 0 0 0-8.599-6.669Z"></path>
  <circle cx="136.618" cy="151.726" r="8.142" fill="#8ca0c9"></circle>
  <circle cx="213.103" cy="151.726" r="8.142" fill="#8ca0c9"></circle>
  <circle cx="136.618" cy="288.226" r="8.142" fill="#8ca0c9"></circle>
  <circle cx="213.103" cy="288.226" r="8.142" fill="#8ca0c9"></circle>
  <circle cx="52.004" cy="160.962" r="15.461" fill="#ffc77b"></circle>
  <circle cx="219.341" cy="25.424" r="15.461" fill="#ffc77b"></circle>
  <path fill="#ffc77b" d="M149.091 60.475a34.059 34.059 0 0 0-64.457 19.913A32.419 32.419 0 0 0 67.465 109v.341s2.43 21.612 28.521 23.651 27.99-27.392 27.99-27.392 14.228 9.112 33.926-6.718-.123-34.55-.123-34.55a14.484 14.484 0 0 0-8.688-3.857Z"></path>
  <circle cx="208.404" cy="219.698" r="3.559" fill="#3c3c4f"></circle>
  <path fill="#fc9654" d="M169.848 87.007c0-9.44-5.89-18.7-13.168-23.613.892.871 12.61 18.511-3.826 33.647-8.432 7.765-19.986 3.192-25.856.289a5.308 5.308 0 0 0-7.708 4.433c-.585 9.962-4.927 23.451-24 24.169-16.129.607-23.974-8.225-27.814-16.587a32.427 32.427 0 0 0 64.684 2.96 27.338 27.338 0 0 0 37.69-25.3Z"></path>
  <path fill="#3c3c4f" d="M136.618 140.084a11.655 11.655 0 0 0-11.642 11.641c.639 15.445 22.647 15.442 23.284 0a11.655 11.655 0 0 0-11.642-11.641zm0 16.284c-6.134-.2-6.134-9.09 0-9.284 6.135.195 6.133 9.09 0 9.284zm76.482-16.284a11.655 11.655 0 0 0-11.642 11.641c.64 15.446 22.646 15.441 23.283 0a11.654 11.654 0 0 0-11.641-11.641zm0 16.284c-6.134-.195-6.133-9.09 0-9.284 6.137.195 6.135 9.09 0 9.284zm-64.84 131.858a11.655 11.655 0 0 0-11.642-11.641c-15.445.639-15.441 22.646 0 23.283a11.656 11.656 0 0 0 11.642-11.642zm-11.642 4.642c-6.135-.195-6.134-9.089 0-9.283 6.135.195 6.133 9.089 0 9.283zm76.482 7a11.655 11.655 0 0 0 11.641-11.642c-.639-15.444-22.645-15.439-23.283 0a11.656 11.656 0 0 0 11.642 11.642zm0-16.283c6.134.195 6.133 9.089 0 9.283-6.131-.195-6.13-9.089 0-9.283zM70.965 160.962A18.983 18.983 0 0 0 52 142c-25.154 1.041-25.147 36.884 0 37.922a18.983 18.983 0 0 0 18.965-18.96zm-30.922 0A11.974 11.974 0 0 1 52 149c15.868.656 15.864 23.268 0 23.922a11.974 11.974 0 0 1-11.957-11.96zM219.34 44.385a18.983 18.983 0 0 0 18.96-18.961c-1.041-25.155-36.884-25.147-37.922 0a18.983 18.983 0 0 0 18.962 18.961zm0-30.922a11.974 11.974 0 0 1 11.96 11.961c-.656 15.868-23.268 15.863-23.922 0a11.974 11.974 0 0 1 11.962-11.961z"></path>
  <path fill="#3c3c4f" d="M63.965 109.005a35.986 35.986 0 0 0 27.823 35v5.985c-.019 9.577 6.365 15.679 14.725 18.932v94.366c-7.006-2.6-14.714 1.938-14.725 9.641.051 15.6-2.392 25.895 14.725 32.892v5.494a17.527 17.527 0 0 0 14.62 17.09 314.632 314.632 0 0 0 112.158 0 17.527 17.527 0 0 0 14.62-17.09v-7.825l.121-.07c31.648 1.7 61.458-12.161 62.239-46.869v-97.886A29.2 29.2 0 0 0 281.1 129.5h-25.471a10.385 10.385 0 0 0-7.718-3.838v-19.138a13.979 13.979 0 0 0-3.664-9.405c6.1-23.532-16.805-45.45-40.044-38.441-9.85-24.864-43.173-31.978-62.134-12.892-23.621-21.548-64.961 1.557-61.2 32.739a35.884 35.884 0 0 0-16.904 30.48zm49.548 62.329a100.012 100.012 0 0 0 26.365 3.375v90.878c-8.125.034-20.468-.166-26.365-1.1zm94.892 33.766a3.5 3.5 0 0 0 3.5-3.5v-26.9c3.962-.066 17.372-.6 29.006-4.879v93.929c-5.171 1.224-19.215 1.993-29.006 1.823V237.8a3.5 3.5 0 0 0-7 0v27.82c-14.471.177-43.6.2-58.027.014v-90.925h58.027V201.6a3.5 3.5 0 0 0 3.5 3.5zM250 165.291a17.692 17.692 0 0 0 3.64-3.309h15.522a9.246 9.246 0 0 1 9.228 9.26l.71 76.558c-.2 13.247-10.235 18.6-22.151 20.705a10.4 10.4 0 0 0-9.037-5.952v-95.967a34.423 34.423 0 0 0 2.088-1.295zM98.788 286.886v-13.961a3.4 3.4 0 0 1 3.373-3.388 128.593 128.593 0 0 0 29.9 3c21.331.27 64.253.271 85.577 0 11.829 0 21.61-.972 29.071-2.89a3.4 3.4 0 0 1 4.225 3.28v13.961c.865 17.522-40.5 17.766-40.137 17.722H138.9c.329.041-40.96-.199-40.112-17.724zm142.123 24.425a10.535 10.535 0 0 1-8.864 10.2 307.668 307.668 0 0 1-109.67 0 10.536 10.536 0 0 1-8.864-10.2v-3.077a101.874 101.874 0 0 0 25.411 3.374h71.843c.82 0 16.68.06 30.144-4.89zm62.36-152.646v97.883c-.572 27.2-22.534 39.633-47.883 39.843 3.562-5.123 2.369-14.991 2.545-20.935 15.412-2.478 28.055-11 28.166-27.715l-.712-76.531a16.246 16.246 0 0 0-16.228-16.228h-11.894c1.166-3.346.508-14.853.668-18.486H281.1a22.2 22.2 0 0 1 22.171 22.169zm-52.338-22.639v13.96c.864 17.514-40.5 17.794-40.137 17.723H138.9c-.267.006-23.051.069-35.241-8.209-5.1-3.4-5.05-8.977-4.868-14.594a35.831 35.831 0 0 0 25.456-9.429c25.026.554 68.3.4 93.393.159 11.832 0 21.612-.972 29.071-2.889a3.4 3.4 0 0 1 4.222 3.279zM170.8 99.257h26.72c2.953 0 6.447.841 7.385 7.287v22.177c-18.4.277-56.228.079-74.868-.1a35.714 35.714 0 0 0 4.92-11.719c14.518 3.908 30.351-4.332 35.843-17.645zm70.107 7.267v20.327c-5.169 1.223-19.215 1.992-29.006 1.823v-22.049c1.43-7.355 5.9-7.368 7.383-7.368h13.965a7.478 7.478 0 0 1 7.662 7.267zM86.283 83.475c3.217-1.739 1.1-5.706 1.413-8.53-.158-26.681 35.904-40.545 51.923-21.854a3.534 3.534 0 0 0 5.3-.081c15.661-19.034 46.908-12.459 53.789 11.124a3.522 3.522 0 0 0 4.709 2.233c17.574-7.62 37.436 7.7 34.519 26.649-3.023-1.341-15.207-.57-18.646-.76a13.319 13.319 0 0 0-10.731 4.987c-2.522-3.234-6.295-4.986-11.037-4.986h-24.63c.463-3.733 1.907-15.062-4.26-14.06a3.5 3.5 0 0 0-2.745 4.118c3.9 18.335-15.146 34.07-32.4 26.751a3.524 3.524 0 0 0-4.809 2.888 28.824 28.824 0 0 1-28.778 25.98c-30.018-.316-39.974-40.075-13.617-54.459zM50.575 25.866a3.5 3.5 0 0 0 3.5-3.5V15.51a3.5 3.5 0 0 0-7 0v6.856a3.5 3.5 0 0 0 3.5 3.5zm-3.5 24.414a3.5 3.5 0 0 0 7 0v-6.855a3.5 3.5 0 0 0-7 0zM67.961 29.4h-6.856a3.5 3.5 0 0 0 0 7h6.856a3.5 3.5 0 0 0 0-7zm-27.915 7a3.5 3.5 0 0 0 0-7h-6.855a3.5 3.5 0 0 0 0 7zm237.615 6.507a3.491 3.491 0 0 0 2.475-1.025l4.848-4.848c3.2-3.3-1.642-8.149-4.95-4.949l-4.847 4.847a3.523 3.523 0 0 0 2.474 5.975zM255.449 61.62a3.5 3.5 0 0 0 4.949 0l4.847-4.848a3.5 3.5 0 0 0-4.949-4.949l-4.847 4.848a3.5 3.5 0 0 0 0 4.949zm19.738-4.848 4.847 4.848a3.5 3.5 0 0 0 4.95-4.949l-4.848-4.848a3.5 3.5 0 0 0-4.949 4.949zM260.3 41.882a3.5 3.5 0 0 0 4.949-4.95l-4.849-4.847a3.5 3.5 0 1 0-4.949 4.949z"></path>
</svg>
