<svg width="1218" height="960" viewBox="0 0 1218 960" fill="none" xmlns="http://www.w3.org/2000/svg">
<g clip-path="url(#clip0_27_2)">
<g filter="url(#filter0_d_27_2)">
<path d="M1116.5 261C1116.5 254.096 1110.9 248.5 1104 248.5C1097.1 248.5 1091.5 254.096 1091.5 261L1116.5 261ZM1091.5 472L1091.5 484.5L1116.5 484.5L1116.5 472L1091.5 472ZM1104 261L1091.5 261L1091.5 472L1104 472L1116.5 472L1116.5 261L1104 261Z" fill="white"/>
</g>
<g filter="url(#filter1_d_27_2)">
<path d="M924.207 150.621C917.679 144.162 630.529 -46.2624 342.519 124.265L342 124.573L342.398 125.027L342.401 125.03C342.404 125.032 342.408 125.036 342.412 125.041C342.421 125.052 342.435 125.069 342.453 125.089L342.617 125.276C342.762 125.44 342.978 125.685 343.258 126.003C343.643 126.442 344.153 127.02 344.774 127.726L344.796 127.751L345.688 128.764C347.781 131.143 350.774 134.542 354.367 138.621C361.555 146.777 371.149 157.652 380.774 168.528C390.399 179.403 400.057 190.279 407.37 198.437C411.026 202.515 414.098 205.916 416.288 208.297C417.382 209.487 418.259 210.425 418.879 211.067C418.948 211.139 419.015 211.207 419.079 211.272L420.273 211.973C420.776 212.067 421.433 212.176 422.231 212.295C424.081 212.571 426.708 212.913 429.947 213.309C436.428 214.101 445.38 215.107 455.512 216.215C475.785 218.432 500.769 221.055 520.219 223.192L520.418 223.213L520.577 223.092C542.206 206.589 558.77 194.269 572.685 186.059C586.597 177.85 597.809 173.782 608.737 173.725C619.661 173.668 630.376 177.619 643.295 185.607C656.22 193.599 671.301 205.598 690.958 221.583L691.117 221.713L691.322 221.693C785.021 212.461 838.075 204.203 928.5 184.091C931.227 177.808 926.785 162.558 925.834 157.162C925.462 155.052 925.097 153.345 924.743 152.121C924.567 151.51 924.389 151.003 924.207 150.621Z" fill="white" shape-rendering="crispEdges"/>
<path d="M924.207 150.621C917.679 144.162 630.529 -46.2624 342.519 124.265L342 124.573L342.398 125.027L342.401 125.03C342.404 125.032 342.408 125.036 342.412 125.041C342.421 125.052 342.435 125.069 342.453 125.089L342.617 125.276C342.762 125.44 342.978 125.685 343.258 126.003C343.643 126.442 344.153 127.02 344.774 127.726L344.796 127.751L345.688 128.764C347.781 131.143 350.774 134.542 354.367 138.621C361.555 146.777 371.149 157.652 380.774 168.528C390.399 179.403 400.057 190.279 407.37 198.437C411.026 202.515 414.098 205.916 416.288 208.297C417.382 209.487 418.259 210.425 418.879 211.067C418.948 211.139 419.015 211.207 419.079 211.272L420.273 211.973C420.776 212.067 421.433 212.176 422.231 212.295C424.081 212.571 426.708 212.913 429.947 213.309C436.428 214.101 445.38 215.107 455.512 216.215C475.785 218.432 500.769 221.055 520.219 223.192L520.418 223.213L520.577 223.092C542.206 206.589 558.77 194.269 572.685 186.059C586.597 177.85 597.809 173.782 608.737 173.725C619.661 173.668 630.376 177.619 643.295 185.607C656.22 193.599 671.301 205.598 690.958 221.583L691.117 221.713L691.322 221.693C785.021 212.461 838.075 204.203 928.5 184.091C931.227 177.808 926.785 162.558 925.834 157.162C925.462 155.052 925.097 153.345 924.743 152.121C924.567 151.51 924.389 151.003 924.207 150.621Z" stroke="black" stroke-opacity="0.2" stroke-linecap="round" shape-rendering="crispEdges"/>
</g>
<g filter="url(#filter2_d_27_2)">
<path d="M473 331.5L437.5 214.5L520 223C606.5 160.001 605 148.001 694 221.001L928.5 184.001C930 182.001 934.202 255.124 933.5 301.501C853.142 317.663 807.123 324.77 723 333.501C587 453.5 625.5 449.5 496.5 335.001C487.45 334.272 473 331.5 473 331.5Z" fill="#29240E"/>
</g>
<g filter="url(#filter3_d_27_2)">
<path d="M285 34.9996C261.353 140.967 265.501 295.922 285 304C304.5 312.078 468.794 330.944 474.999 331.5C481.205 332.056 455.5 209 435.5 213C415.5 217 401.432 171.22 358.5 141C315.568 110.779 347.5 42.5 347.5 34.9996C347.5 27.4991 311.132 7.47624 285 34.9996Z" fill="#FFB300" shape-rendering="crispEdges"/>
<path d="M285 34.9996C261.353 140.967 265.501 295.922 285 304C304.5 312.078 468.794 330.944 474.999 331.5C481.205 332.056 455.5 209 435.5 213C415.5 217 401.432 171.22 358.5 141C315.568 110.779 347.5 42.5 347.5 34.9996C347.5 27.4991 311.132 7.47624 285 34.9996Z" stroke="black" stroke-opacity="0.2" shape-rendering="crispEdges"/>
</g>
<g filter="url(#filter4_d_27_2)">
<path d="M111 449C101.011 436.389 80.0167 422.348 62.8947 404.641C54.3335 395.787 45.899 387.6 38.6017 381.375C34.953 378.262 31.595 375.645 28.6525 373.682C25.7009 371.712 23.2019 370.424 21.2668 369.933C20.3019 369.688 19.5134 369.651 18.8937 369.797C18.2901 369.939 17.8248 370.259 17.4865 370.785C17.1391 371.326 16.9067 372.114 16.8459 373.211C16.7853 374.305 16.8975 375.675 17.2082 377.348C18.4543 384.057 22.8395 395.34 31.422 412.53C48.5716 446.879 82.3831 504.633 140.957 596.174C249.923 754.026 361.404 841.991 447.801 890.784C494.498 917.157 533.872 932.088 561.564 940.425C575.409 944.593 586.336 947.114 593.797 948.592C597.527 949.331 600.392 949.808 602.321 950.102C603.286 950.248 604.018 950.349 604.507 950.412C604.751 950.444 604.935 950.467 605.058 950.482L605.091 950.485L605.108 950.484L605.128 950.482C605.251 950.467 605.435 950.444 605.679 950.412C606.168 950.349 606.9 950.248 607.864 950.102C609.794 949.808 612.659 949.33 616.389 948.591C623.85 947.113 634.776 944.593 648.622 940.425C676.314 932.088 715.687 917.157 762.385 890.784C848.784 841.99 960.268 754.021 1069.24 596.16C1127.81 504.626 1162.32 446.686 1180.54 412.052C1189.65 394.722 1194.66 383.261 1196.57 376.357C1197.04 374.634 1197.32 373.208 1197.43 372.056C1197.53 370.897 1197.45 370.048 1197.25 369.457C1197.05 368.884 1196.74 368.57 1196.35 368.415C1195.94 368.252 1195.36 368.236 1194.58 368.433C1193.01 368.827 1190.87 370.011 1188.26 371.892C1185.67 373.762 1182.65 376.287 1179.33 379.313C1172.7 385.363 1164.88 393.386 1156.85 402.101C1140.78 419.528 1113.89 452.311 1113.89 452.311C958.083 546.699 829.387 603.812 706.296 623.649C515.073 656.96 345.325 594.481 111 449Z" fill="#1A1810"/>
<path d="M1194.82 369.402C1195.5 369.232 1195.84 369.289 1195.98 369.345C1196.04 369.367 1196.08 369.397 1196.12 369.444C1196.16 369.483 1196.21 369.549 1196.25 369.659L1196.3 369.784C1196.44 370.186 1196.53 370.877 1196.43 371.967C1196.33 373.039 1196.07 374.402 1195.6 376.09C1193.73 382.881 1188.76 394.26 1179.65 411.587C1161.46 446.177 1126.97 504.078 1068.41 595.592C959.531 753.328 848.161 841.194 761.894 889.913C715.265 916.246 675.96 931.15 648.334 939.468C634.521 943.627 623.625 946.139 616.194 947.61C612.479 948.346 609.629 948.822 607.714 949.113C606.757 949.259 606.032 949.358 605.55 949.421C605.359 949.446 605.207 949.464 605.093 949.478C604.979 949.464 604.826 949.446 604.636 949.421C604.153 949.358 603.429 949.259 602.472 949.113C600.556 948.822 597.706 948.347 593.991 947.611C586.56 946.14 575.665 943.626 561.852 939.468C534.225 931.15 494.921 916.246 448.293 889.913C362.031 841.197 250.667 753.339 141.79 595.62C83.2241 504.091 49.4397 446.38 32.3164 412.084C23.734 394.894 19.4093 383.722 18.1914 377.165C17.8895 375.54 17.79 374.255 17.8447 373.267C17.9 372.27 18.1067 371.671 18.3281 371.326C18.4975 371.063 18.7036 370.9 18.9932 370.807L19.123 370.771C19.5309 370.675 20.1449 370.68 21.0205 370.902C22.787 371.351 25.172 372.561 28.0977 374.514C30.9956 376.448 34.3212 379.037 37.9531 382.136C45.2159 388.332 53.6252 396.493 62.1758 405.336C70.7789 414.233 80.3507 422.205 88.9766 429.495C97.6348 436.813 105.296 443.409 110.216 449.621L110.324 449.758L110.473 449.85C344.85 595.363 514.865 658.007 706.455 624.636V624.637L706.467 624.634C829.741 604.765 958.563 547.578 1114.41 453.166L1114.56 453.077L1114.67 452.945L1113.89 452.311C1114.62 452.907 1114.66 452.942 1114.67 452.944L1114.67 452.939C1114.67 452.936 1114.68 452.929 1114.68 452.921C1114.7 452.905 1114.72 452.882 1114.74 452.851C1114.79 452.788 1114.87 452.695 1114.97 452.573C1115.17 452.329 1115.47 451.969 1115.85 451.504C1116.62 450.574 1117.73 449.226 1119.11 447.554C1121.89 444.21 1125.75 439.569 1130.11 434.385C1138.84 424.011 1149.57 411.474 1157.58 402.778C1165.61 394.073 1173.4 386.074 1180 380.052C1183.31 377.04 1186.29 374.543 1188.85 372.703C1191.44 370.834 1193.45 369.748 1194.82 369.402Z" stroke="black" stroke-width="2"/>
</g>
<path d="M188.217 504.05C353.642 583.841 476.354 626.34 600.463 627.659C724.569 628.978 850.138 589.12 1021.28 504.053C1021.52 503.93 1022.5 505.5 1022.5 505.5V506.5C851.31 591.593 724.793 629.981 600.452 628.659C476.295 627.34 353.597 584.879 188.505 505.297C189.155 644.732 253.236 742.052 339.57 795.725C418.813 844.988 516.816 857.488 601.773 832.011C595.371 829.876 589.045 827.527 582.81 824.962C582.554 824.857 582.432 824.565 582.537 824.31C582.642 824.054 582.934 823.933 583.189 824.038C589.84 826.774 596.595 829.263 603.437 831.508C610.666 829.293 617.799 826.803 624.816 824.035C625.073 823.934 625.363 824.06 625.465 824.316C625.566 824.573 625.44 824.863 625.184 824.965C618.58 827.569 611.874 829.928 605.083 832.044C691.199 859.755 790.834 848.754 871.159 799.855C958.372 746.764 1022.84 648.982 1022.5 507.501C1022.5 507.225 1022.5 505.5 1022.5 505.5C1022.5 505.5 1023.5 507.223 1023.5 507.499C1023.84 649.321 959.197 747.432 871.679 800.71C790.688 850.014 690.129 860.909 603.427 832.556C517.875 858.664 418.949 846.25 339.043 796.574C252.247 742.615 187.91 644.703 187.5 504.501L187.498 503.702L188.217 504.05Z" fill="#FFD76B"/>
<path d="M1022.5 506.5C851.31 591.593 724.793 629.981 600.452 628.659C476.295 627.34 353.597 584.879 188.505 505.297C189.155 644.732 253.236 742.052 339.57 795.725C418.813 844.988 516.816 857.488 601.773 832.011C595.371 829.876 589.045 827.527 582.81 824.962C582.554 824.857 582.432 824.565 582.537 824.31C582.642 824.054 582.934 823.933 583.189 824.038C589.84 826.774 596.595 829.263 603.437 831.508C610.666 829.293 617.799 826.803 624.816 824.035C625.073 823.934 625.363 824.06 625.465 824.316C625.566 824.573 625.44 824.863 625.184 824.965C618.58 827.569 611.874 829.928 605.083 832.044C691.199 859.755 790.834 848.754 871.159 799.855C958.372 746.764 1022.84 648.982 1022.5 507.501C1022.5 507.373 1022.5 506.934 1022.5 506.5Z" fill="#FFD76B"/>
<circle cx="453.5" cy="675.5" r="106.5" fill="#282828"/>
<circle cx="755.5" cy="675.5" r="106.5" fill="#282828"/>
<g filter="url(#filter5_n_27_2)">
<path fill-rule="evenodd" clip-rule="evenodd" d="M375.001 620.037C375.001 620.035 375.001 620.032 375.001 620.029L375.999 619.957C376.017 620.206 376.036 620.454 376.055 620.701L386.792 627.475L386.999 627.46C387.003 627.511 387.006 627.562 387.01 627.612L517.654 710.021C517.732 710.047 517.801 710.092 517.857 710.15L529.364 717.408C529.367 717.407 529.37 717.407 529.373 717.406L529.375 717.415L530.534 718.146L530.614 718.209C530.782 718.37 530.819 718.633 530.69 718.837C530.561 719.041 530.308 719.12 530.091 719.038L530.001 718.992L529.196 718.484C501.129 725.837 477.955 729.996 458.859 730.451C439.664 730.909 424.551 727.628 412.728 720.059C389.265 705.037 378.985 673.284 375.094 621.278L373.733 620.42L374.267 619.574L375.001 620.037ZM376.146 621.942C380.081 673.515 390.366 704.554 413.267 719.216C424.865 726.641 439.759 729.906 458.836 729.451C477.614 729.003 500.408 724.951 528.037 717.754L517.395 711.04C493.378 717.212 473.576 720.632 457.279 720.908C440.928 721.185 428.069 718.297 418.017 711.814C398.008 698.91 389.348 671.916 386.051 628.189L376.146 621.942ZM387.105 628.854C390.445 672.149 399.111 698.431 418.559 710.974C428.389 717.313 441.031 720.183 457.263 719.908C473.239 719.638 492.657 716.32 516.229 710.305L387.105 628.854Z" fill="#E42929"/>
<path d="M387.105 628.854C390.445 672.149 399.111 698.431 418.559 710.974C428.389 717.313 441.031 720.183 457.263 719.908C473.239 719.638 492.657 716.32 516.229 710.305L387.105 628.854Z" fill="#E42929"/>
<path d="M376.146 621.942C380.081 673.515 390.366 704.554 413.267 719.216C424.865 726.641 439.759 729.906 458.836 729.451C477.614 729.003 500.408 724.951 528.037 717.754L517.395 711.04C493.378 717.212 473.576 720.632 457.279 720.908C440.928 721.185 428.069 718.297 418.017 711.814C398.008 698.91 389.348 671.916 386.051 628.189L376.146 621.942Z" fill="#E42929"/>
<path fill-rule="evenodd" clip-rule="evenodd" d="M375.001 620.037C375.001 620.035 375.001 620.032 375.001 620.029L375.999 619.957C376.017 620.206 376.036 620.454 376.055 620.701L386.792 627.475L386.999 627.46C387.003 627.511 387.006 627.562 387.01 627.612L517.654 710.021C517.732 710.047 517.801 710.092 517.857 710.15L529.364 717.408C529.367 717.407 529.37 717.407 529.373 717.406L529.375 717.415L530.534 718.146L530.614 718.209C530.782 718.37 530.819 718.633 530.69 718.837C530.561 719.041 530.308 719.12 530.091 719.038L530.001 718.992L529.196 718.484C501.129 725.837 477.955 729.996 458.859 730.451C439.664 730.909 424.551 727.628 412.728 720.059C389.265 705.037 378.985 673.284 375.094 621.278L373.733 620.42L374.267 619.574L375.001 620.037ZM376.146 621.942C380.081 673.515 390.366 704.554 413.267 719.216C424.865 726.641 439.759 729.906 458.836 729.451C477.614 729.003 500.408 724.951 528.037 717.754L517.395 711.04C493.378 717.212 473.576 720.632 457.279 720.908C440.928 721.185 428.069 718.297 418.017 711.814C398.008 698.91 389.348 671.916 386.051 628.189L376.146 621.942ZM387.105 628.854C390.445 672.149 399.111 698.431 418.559 710.974C428.389 717.313 441.031 720.183 457.263 719.908C473.239 719.638 492.657 716.32 516.229 710.305L387.105 628.854Z" stroke="black" stroke-width="2"/>
<path d="M387.105 628.854C390.445 672.149 399.111 698.431 418.559 710.974C428.389 717.313 441.031 720.183 457.263 719.908C473.239 719.638 492.657 716.32 516.229 710.305L387.105 628.854Z" stroke="black" stroke-width="2"/>
<path d="M376.146 621.942C380.081 673.515 390.366 704.554 413.267 719.216C424.865 726.641 439.759 729.906 458.836 729.451C477.614 729.003 500.408 724.951 528.037 717.754L517.395 711.04C493.378 717.212 473.576 720.632 457.279 720.908C440.928 721.185 428.069 718.297 418.017 711.814C398.008 698.91 389.348 671.916 386.051 628.189L376.146 621.942Z" stroke="black" stroke-width="2"/>
</g>
<g filter="url(#filter6_n_27_2)">
<path fill-rule="evenodd" clip-rule="evenodd" d="M834.767 620.037C834.767 620.035 834.766 620.032 834.767 620.029L833.769 619.957C833.751 620.206 833.731 620.454 833.713 620.701L822.976 627.475L822.769 627.46C822.765 627.511 822.762 627.562 822.758 627.612L692.113 710.021C692.036 710.047 691.967 710.092 691.91 710.15L680.403 717.408C680.4 717.407 680.397 717.407 680.395 717.406L680.393 717.415L679.233 718.146L679.153 718.209C678.986 718.37 678.948 718.633 679.077 718.837C679.206 719.041 679.459 719.12 679.677 719.038L679.767 718.992L680.571 718.484C708.638 725.837 731.812 729.996 750.908 730.451C770.104 730.909 785.217 727.628 797.04 720.059C820.503 705.037 830.782 673.284 834.674 621.278L836.034 620.42L835.501 619.574L834.767 620.037ZM833.621 621.942C829.687 673.515 819.402 704.554 796.501 719.216C784.902 726.641 770.009 729.906 750.932 729.451C732.154 729.003 709.359 724.951 681.73 717.754L692.373 711.04C716.39 717.212 736.192 720.632 752.488 720.908C768.839 721.185 781.699 718.297 791.751 711.814C811.759 698.91 820.419 671.916 823.717 628.189L833.621 621.942ZM822.662 628.854C819.322 672.149 810.657 698.431 791.209 710.974C781.379 717.313 768.737 720.183 752.505 719.908C736.529 719.638 717.111 716.32 693.539 710.305L822.662 628.854Z" fill="#E42929"/>
<path d="M822.662 628.854C819.322 672.149 810.657 698.431 791.209 710.974C781.379 717.313 768.737 720.183 752.505 719.908C736.529 719.638 717.111 716.32 693.539 710.305L822.662 628.854Z" fill="#E42929"/>
<path d="M833.621 621.942C829.687 673.515 819.402 704.554 796.501 719.216C784.902 726.641 770.009 729.906 750.932 729.451C732.154 729.003 709.359 724.951 681.73 717.754L692.373 711.04C716.39 717.212 736.192 720.632 752.488 720.908C768.839 721.185 781.699 718.297 791.751 711.814C811.759 698.91 820.419 671.916 823.717 628.189L833.621 621.942Z" fill="#E42929"/>
<path fill-rule="evenodd" clip-rule="evenodd" d="M834.767 620.037C834.767 620.035 834.766 620.032 834.767 620.029L833.769 619.957C833.751 620.206 833.731 620.454 833.713 620.701L822.976 627.475L822.769 627.46C822.765 627.511 822.762 627.562 822.758 627.612L692.113 710.021C692.036 710.047 691.967 710.092 691.91 710.15L680.403 717.408C680.4 717.407 680.397 717.407 680.395 717.406L680.393 717.415L679.233 718.146L679.153 718.209C678.986 718.37 678.948 718.633 679.077 718.837C679.206 719.041 679.459 719.12 679.677 719.038L679.767 718.992L680.571 718.484C708.638 725.837 731.812 729.996 750.908 730.451C770.104 730.909 785.217 727.628 797.04 720.059C820.503 705.037 830.782 673.284 834.674 621.278L836.034 620.42L835.501 619.574L834.767 620.037ZM833.621 621.942C829.687 673.515 819.402 704.554 796.501 719.216C784.902 726.641 770.009 729.906 750.932 729.451C732.154 729.003 709.359 724.951 681.73 717.754L692.373 711.04C716.39 717.212 736.192 720.632 752.488 720.908C768.839 721.185 781.699 718.297 791.751 711.814C811.759 698.91 820.419 671.916 823.717 628.189L833.621 621.942ZM822.662 628.854C819.322 672.149 810.657 698.431 791.209 710.974C781.379 717.313 768.737 720.183 752.505 719.908C736.529 719.638 717.111 716.32 693.539 710.305L822.662 628.854Z" stroke="black" stroke-width="2"/>
<path d="M822.662 628.854C819.322 672.149 810.657 698.431 791.209 710.974C781.379 717.313 768.737 720.183 752.505 719.908C736.529 719.638 717.111 716.32 693.539 710.305L822.662 628.854Z" stroke="black" stroke-width="2"/>
<path d="M833.621 621.942C829.687 673.515 819.402 704.554 796.501 719.216C784.902 726.641 770.009 729.906 750.932 729.451C732.154 729.003 709.359 724.951 681.73 717.754L692.373 711.04C716.39 717.212 736.192 720.632 752.488 720.908C768.839 721.185 781.699 718.297 791.751 711.814C811.759 698.91 820.419 671.916 823.717 628.189L833.621 621.942Z" stroke="black" stroke-width="2"/>
</g>
<g filter="url(#filter7_ddi_27_2)">
<circle cx="608.5" cy="294.5" r="50.5" fill="#6AC0DC"/>
</g>
<g filter="url(#filter8_d_27_2)">
<path d="M280.338 303.337C280.907 302.91 281.35 302.537 281.63 302.229L497.501 333.813C570.04 407.205 603.001 450.313 720.501 333.813C720.788 334.123 933.623 301.92 934.204 302.35C935.375 303.216 937.165 304.37 939.474 305.766C944.097 308.559 950.854 312.35 959.033 316.794C975.396 325.683 997.48 337.199 1019.65 348.601C1041.82 360.003 1064.09 371.293 1080.8 379.732C1089.16 383.952 1096.14 387.459 1101.02 389.911C1103.46 391.137 1105.38 392.1 1106.69 392.756C1107.1 392.96 1107.45 393.134 1107.73 393.277L1108.19 393.504C1108.28 393.553 1108.37 393.595 1108.44 393.631L1108.57 393.696C1108.61 393.718 1108.65 393.733 1108.67 393.744L1108.68 393.753L1108.69 393.757L1108.7 393.76L1108.92 393.313L1108.7 393.761L1108.72 393.77L1108.74 393.777L1108.74 393.779L1108.76 393.786C1108.77 393.793 1108.8 393.803 1108.83 393.816C1108.89 393.844 1108.99 393.885 1109.11 393.941C1109.36 394.055 1109.72 394.229 1110.18 394.465C1111.08 394.938 1112.35 395.663 1113.77 396.667C1115.52 397.905 1117.5 399.566 1119.34 401.696C1119.43 401.794 1119.51 401.894 1119.6 401.994C1119.6 401.997 1119.59 402 1119.59 402.002C1120.38 403.009 1121.92 405.113 1122.55 406.245C1127.49 415.085 1128.69 429.373 1113.02 451.021C1111.09 453.678 1107.6 456.905 1102.7 460.627C1097.81 464.342 1091.54 468.527 1084.08 473.102C1069.16 482.251 1049.51 492.947 1026.69 504.55C981.039 527.756 922.699 554.581 864.075 579.923C805.453 605.265 746.553 629.121 699.785 646.39C676.401 655.024 656.055 662.01 640.297 666.711C632.418 669.061 625.691 670.838 620.31 671.965C615.611 672.948 611.976 673.426 609.501 673.373C609.475 673.373 609.449 673.372 609.423 673.371C609.13 673.369 608.271 673.389 608.142 673.376L608.143 673.376C605.674 673.399 602.109 672.922 597.536 671.965C592.155 670.838 585.429 669.061 577.549 666.711C561.791 662.01 541.445 655.024 518.061 646.39C471.293 629.121 412.394 605.265 353.771 579.923C295.147 554.581 236.807 527.756 191.158 504.55C168.333 492.947 148.688 482.251 133.769 473.102C126.309 468.527 120.038 464.342 115.144 460.627C110.241 456.905 106.751 453.678 104.827 451.021C89.1515 429.373 90.359 415.085 95.2971 406.245C96.1653 404.691 97.152 403.299 98.1897 402.059C100.121 399.753 102.229 397.975 104.078 396.667C105.498 395.663 106.763 394.938 107.669 394.465C108.122 394.229 108.485 394.055 108.734 393.941C108.851 393.888 108.944 393.848 109.008 393.821L109.018 393.816C109.049 393.803 109.074 393.793 109.089 393.786L109.106 393.779L109.11 393.777L109.129 393.77L109.148 393.76L108.923 393.313L109.15 393.759L109.156 393.756C109.161 393.753 109.169 393.749 109.18 393.744L109.275 393.696C109.359 393.654 109.486 393.59 109.652 393.506C109.984 393.338 110.476 393.09 111.118 392.766C112.403 392.117 114.287 391.165 116.683 389.953C121.475 387.528 128.318 384.06 136.521 379.888C152.926 371.542 174.77 360.377 196.524 349.1C218.277 337.823 239.944 326.433 255.993 317.638C264.016 313.241 270.642 309.488 275.174 306.722C277.438 305.34 279.192 304.196 280.338 303.337Z" fill="white"/>
<path d="M609.501 673.373C609.346 673.364 608.286 673.391 608.142 673.376L608.467 673.37C605.99 673.441 602.313 672.965 597.536 671.965C592.155 670.838 585.429 669.061 577.549 666.711C561.791 662.01 541.445 655.024 518.061 646.39C471.293 629.121 412.394 605.265 353.771 579.923C295.147 554.581 236.807 527.756 191.158 504.55C168.333 492.947 148.688 482.251 133.769 473.102C126.309 468.527 120.038 464.342 115.144 460.627C110.241 456.905 106.751 453.678 104.827 451.021C89.1515 429.373 90.359 415.085 95.2971 406.245C97.7812 401.798 101.236 398.678 104.078 396.667C105.498 395.663 106.763 394.938 107.669 394.465C108.122 394.229 108.485 394.055 108.734 393.941C108.858 393.885 108.954 393.844 109.018 393.816C109.049 393.803 109.074 393.793 109.089 393.786C109.096 393.783 109.102 393.781 109.106 393.779L109.11 393.777L109.129 393.77L109.148 393.76L108.923 393.313L109.15 393.759C109.15 393.759 109.153 393.757 109.156 393.756C109.161 393.753 109.169 393.749 109.18 393.744C109.201 393.733 109.233 393.717 109.275 393.696C109.359 393.654 109.486 393.59 109.652 393.506C109.984 393.338 110.476 393.09 111.118 392.766C112.403 392.117 114.287 391.165 116.683 389.953C121.475 387.528 128.318 384.06 136.521 379.888C152.926 371.542 174.77 360.377 196.524 349.1C218.277 337.823 239.944 326.433 255.993 317.638C264.016 313.241 270.642 309.488 275.174 306.722C277.438 305.34 279.192 304.196 280.338 303.337C280.907 302.91 281.35 302.537 281.63 302.229L497.501 333.813C570.04 407.205 603.001 450.313 720.501 333.813C720.788 334.123 933.623 301.92 934.204 302.35C935.375 303.216 937.165 304.37 939.474 305.766C944.097 308.559 950.854 312.35 959.033 316.794C975.396 325.683 997.48 337.199 1019.65 348.601C1041.82 360.003 1064.09 371.293 1080.8 379.732C1089.16 383.952 1096.14 387.459 1101.02 389.911C1103.46 391.137 1105.38 392.1 1106.69 392.756C1107.35 393.084 1107.85 393.335 1108.19 393.504C1108.36 393.588 1108.48 393.653 1108.57 393.696C1108.61 393.718 1108.65 393.733 1108.67 393.744C1108.68 393.749 1108.69 393.754 1108.69 393.757C1108.69 393.758 1108.7 393.76 1108.7 393.76L1108.92 393.313L1108.7 393.761L1108.72 393.77L1108.74 393.777L1108.74 393.779C1108.74 393.781 1108.75 393.783 1108.76 393.786C1108.77 393.793 1108.8 393.803 1108.83 393.816C1108.89 393.844 1108.99 393.885 1109.11 393.941C1109.36 394.055 1109.72 394.229 1110.18 394.465C1111.08 394.938 1112.35 395.663 1113.77 396.667C1115.6 397.962 1117.68 399.72 1119.6 401.994C1084.41 430.035 984.494 484.459 879.41 532.589C826.834 556.67 772.982 579.167 725.324 595.987C677.951 612.707 636.745 623.798 609.001 625.285C581.257 623.798 540.082 612.738 492.756 596.065C445.145 579.292 391.355 556.857 338.841 532.839C233.793 484.793 133.299 430.079 98.1897 402.059M609.378 673.37C611.855 673.441 615.533 672.965 620.31 671.965C625.691 670.838 632.418 669.061 640.297 666.711C656.055 662.01 676.401 655.024 699.785 646.39C746.553 629.121 805.453 605.265 864.075 579.923C922.699 554.581 981.039 527.756 1026.69 504.55C1049.51 492.947 1069.16 482.251 1084.08 473.102C1091.54 468.527 1097.81 464.342 1102.7 460.627C1107.6 456.905 1111.09 453.678 1113.02 451.021C1128.69 429.373 1127.49 415.085 1122.55 406.245C1121.84 404.98 1120 402.5 1119.34 401.696" stroke="black" stroke-opacity="0.2"/>
<path d="M103.138 451.324C87.4626 429.677 90.0005 411.5 98.0005 403.5C133.109 431.52 234.045 485.096 339.093 533.143C391.607 557.161 445.397 579.596 493.008 596.369C540.334 613.042 581.509 624.102 609.253 625.589C636.997 624.102 678.203 613.011 725.576 596.291C773.234 579.471 827.085 556.974 879.662 532.893C984.734 484.767 1084.64 430.35 1119.84 402.306C1120.63 403.313 1122.17 405.417 1122.8 406.549C1127.74 415.389 1128.95 429.677 1113.27 451.324C1111.35 453.981 1107.86 457.209 1102.95 460.931C1098.06 464.646 1091.79 468.831 1084.33 473.405C1069.41 482.555 1049.76 493.25 1026.94 504.854C981.29 528.059 922.95 554.885 864.327 580.227C805.704 605.569 746.804 629.425 700.037 646.694C676.653 655.328 656.307 662.314 640.549 667.015C632.669 669.365 625.943 671.142 620.562 672.269C615.863 673.252 612.228 673.729 609.753 673.677C609.727 673.677 609.7 673.676 609.674 673.675C609.381 673.673 608.522 673.693 608.393 673.68L608.395 673.68C605.926 673.703 602.36 673.226 597.788 672.269C592.406 671.142 585.68 669.365 577.8 667.015C562.042 662.314 541.697 655.328 518.312 646.694C471.545 629.425 412.645 605.569 354.022 580.227C295.399 554.884 237.059 528.059 191.41 504.854C168.259 494.142 148.286 484.333 134.021 473.405C126.561 468.831 120.29 464.646 115.396 460.931C110.493 457.209 105.062 453.981 103.138 451.324Z" fill="#FFB300"/>
<path d="M609.753 673.677C609.598 673.668 608.538 673.694 608.393 673.68L608.719 673.674C606.242 673.745 602.564 673.269 597.788 672.269C592.406 671.142 585.68 669.365 577.8 667.015C562.042 662.314 541.697 655.328 518.312 646.694C471.545 629.425 412.645 605.569 354.022 580.227C295.399 554.884 237.059 528.059 191.41 504.854C168.259 494.142 148.286 484.333 134.021 473.405C126.561 468.831 120.29 464.646 115.396 460.931C110.493 457.209 105.062 453.981 103.138 451.324C87.4626 429.677 90.0005 411.5 98.0005 403.5C133.109 431.52 234.045 485.096 339.093 533.143C391.607 557.161 445.397 579.596 493.008 596.369C540.334 613.042 581.509 624.102 609.253 625.589C636.997 624.102 678.203 613.011 725.576 596.291C773.234 579.471 827.085 556.974 879.662 532.893C984.745 484.763 1084.66 430.339 1119.85 402.298M609.63 673.674C612.107 673.745 615.784 673.269 620.562 672.269C625.943 671.142 632.669 669.365 640.549 667.015C656.307 662.314 676.653 655.328 700.037 646.694C746.804 629.425 805.704 605.569 864.327 580.227C922.95 554.885 981.29 528.059 1026.94 504.854C1049.76 493.25 1069.41 482.555 1084.33 473.405C1091.79 468.831 1098.06 464.646 1102.95 460.931C1107.86 457.209 1111.35 453.981 1113.27 451.324C1128.95 429.677 1127.74 415.389 1122.8 406.549C1122.09 405.284 1120.25 402.804 1119.59 402" stroke="black" stroke-opacity="0.2"/>
</g>
<g filter="url(#filter9_n_27_2)">
<circle cx="1104" cy="266" r="10" fill="#E42929"/>
</g>
</g>
<defs>
<filter id="filter0_d_27_2" x="1087.5" y="248.5" width="33" height="244" filterUnits="userSpaceOnUse" color-interpolation-filters="sRGB">
<feFlood flood-opacity="0" result="BackgroundImageFix"/>
<feColorMatrix in="SourceAlpha" type="matrix" values="0 0 0 0 0 0 0 0 0 0 0 0 0 0 0 0 0 0 127 0" result="hardAlpha"/>
<feOffset dy="4"/>
<feGaussianBlur stdDeviation="2"/>
<feComposite in2="hardAlpha" operator="out"/>
<feColorMatrix type="matrix" values="0 0 0 0 0 0 0 0 0 0 0 0 0 0 0 0 0 0 0.5 0"/>
<feBlend mode="normal" in2="BackgroundImageFix" result="effect1_dropShadow_27_2"/>
<feBlend mode="normal" in="SourceGraphic" in2="effect1_dropShadow_27_2" result="shape"/>
</filter>
<filter id="filter1_d_27_2" x="316.227" y="32" width="638.646" height="220.731" filterUnits="userSpaceOnUse" color-interpolation-filters="sRGB">
<feFlood flood-opacity="0" result="BackgroundImageFix"/>
<feColorMatrix in="SourceAlpha" type="matrix" values="0 0 0 0 0 0 0 0 0 0 0 0 0 0 0 0 0 0 127 0" result="hardAlpha"/>
<feOffset dy="4"/>
<feGaussianBlur stdDeviation="12.5"/>
<feComposite in2="hardAlpha" operator="out"/>
<feColorMatrix type="matrix" values="0 0 0 0 1 0 0 0 0 0.6 0 0 0 0 0 0 0 0 0.313726 0"/>
<feBlend mode="normal" in2="BackgroundImageFix" result="effect1_dropShadow_27_2"/>
<feBlend mode="normal" in="SourceGraphic" in2="effect1_dropShadow_27_2" result="shape"/>
</filter>
<filter id="filter2_d_27_2" x="412.5" y="149.866" width="546.078" height="301.324" filterUnits="userSpaceOnUse" color-interpolation-filters="sRGB">
<feFlood flood-opacity="0" result="BackgroundImageFix"/>
<feColorMatrix in="SourceAlpha" type="matrix" values="0 0 0 0 0 0 0 0 0 0 0 0 0 0 0 0 0 0 127 0" result="hardAlpha"/>
<feOffset dy="4"/>
<feGaussianBlur stdDeviation="12.5"/>
<feComposite in2="hardAlpha" operator="out"/>
<feColorMatrix type="matrix" values="0 0 0 0 1 0 0 0 0 0.6 0 0 0 0 0 0 0 0 0.313726 0"/>
<feBlend mode="normal" in2="BackgroundImageFix" result="effect1_dropShadow_27_2"/>
<feBlend mode="normal" in="SourceGraphic" in2="effect1_dropShadow_27_2" result="shape"/>
</filter>
<filter id="filter3_d_27_2" x="243.283" y="-0.576172" width="258.159" height="361.578" filterUnits="userSpaceOnUse" color-interpolation-filters="sRGB">
<feFlood flood-opacity="0" result="BackgroundImageFix"/>
<feColorMatrix in="SourceAlpha" type="matrix" values="0 0 0 0 0 0 0 0 0 0 0 0 0 0 0 0 0 0 127 0" result="hardAlpha"/>
<feOffset dy="4"/>
<feGaussianBlur stdDeviation="12.5"/>
<feComposite in2="hardAlpha" operator="out"/>
<feColorMatrix type="matrix" values="0 0 0 0 1 0 0 0 0 0.6 0 0 0 0 0 0 0 0 0.313726 0"/>
<feBlend mode="normal" in2="BackgroundImageFix" result="effect1_dropShadow_27_2"/>
<feBlend mode="normal" in="SourceGraphic" in2="effect1_dropShadow_27_2" result="shape"/>
</filter>
<filter id="filter4_d_27_2" x="-8.16992" y="346.289" width="1236.7" height="634.211" filterUnits="userSpaceOnUse" color-interpolation-filters="sRGB">
<feFlood flood-opacity="0" result="BackgroundImageFix"/>
<feColorMatrix in="SourceAlpha" type="matrix" values="0 0 0 0 0 0 0 0 0 0 0 0 0 0 0 0 0 0 127 0" result="hardAlpha"/>
<feOffset dy="4"/>
<feGaussianBlur stdDeviation="12.5"/>
<feComposite in2="hardAlpha" operator="out"/>
<feColorMatrix type="matrix" values="0 0 0 0 1 0 0 0 0 0.6 0 0 0 0 0 0 0 0 0.313726 0"/>
<feBlend mode="normal" in2="BackgroundImageFix" result="effect1_dropShadow_27_2"/>
<feBlend mode="normal" in="SourceGraphic" in2="effect1_dropShadow_27_2" result="shape"/>
</filter>
<filter id="filter5_n_27_2" x="372.354" y="618.195" width="159.413" height="113.298" filterUnits="userSpaceOnUse" color-interpolation-filters="sRGB">
<feFlood flood-opacity="0" result="BackgroundImageFix"/>
<feBlend mode="normal" in="SourceGraphic" in2="BackgroundImageFix" result="shape"/>
<feTurbulence type="fractalNoise" baseFrequency="2 2" stitchTiles="stitch" numOctaves="3" result="noise" seed="7167" />
<feColorMatrix in="noise" type="luminanceToAlpha" result="alphaNoise" />
<feComponentTransfer in="alphaNoise" result="coloredNoise1">
<feFuncA type="discrete" tableValues="0 0 0 0 1 1 1 1 1 1 1 1 1 1 1 1 1 1 1 1 1 1 1 1 1 1 1 1 1 1 1 1 1 1 1 1 1 1 1 1 1 1 1 1 1 0 0 0 0 0 0 0 0 0 0 0 0 0 0 0 0 0 0 0 0 0 0 0 0 0 0 0 0 0 0 0 0 0 0 0 0 0 0 0 0 0 0 0 0 0 0 0 0 0 0 0 0 0 0 0 "/>
</feComponentTransfer>
<feComposite operator="in" in2="shape" in="coloredNoise1" result="noise1Clipped" />
<feFlood flood-color="rgba(8, 3, 3, 0.25)" result="color1Flood" />
<feComposite operator="in" in2="noise1Clipped" in="color1Flood" result="color1" />
<feMerge result="effect1_noise_27_2">
<feMergeNode in="shape" />
<feMergeNode in="color1" />
</feMerge>
</filter>
<filter id="filter6_n_27_2" x="678" y="618.195" width="159.413" height="113.298" filterUnits="userSpaceOnUse" color-interpolation-filters="sRGB">
<feFlood flood-opacity="0" result="BackgroundImageFix"/>
<feBlend mode="normal" in="SourceGraphic" in2="BackgroundImageFix" result="shape"/>
<feTurbulence type="fractalNoise" baseFrequency="2 2" stitchTiles="stitch" numOctaves="3" result="noise" seed="5212" />
<feColorMatrix in="noise" type="luminanceToAlpha" result="alphaNoise" />
<feComponentTransfer in="alphaNoise" result="coloredNoise1">
<feFuncA type="discrete" tableValues="0 0 0 0 1 1 1 1 1 1 1 1 1 1 1 1 1 1 1 1 1 1 1 1 1 1 1 1 1 1 1 1 1 1 1 1 1 1 1 1 1 1 1 1 1 0 0 0 0 0 0 0 0 0 0 0 0 0 0 0 0 0 0 0 0 0 0 0 0 0 0 0 0 0 0 0 0 0 0 0 0 0 0 0 0 0 0 0 0 0 0 0 0 0 0 0 0 0 0 0 "/>
</feComponentTransfer>
<feComposite operator="in" in2="shape" in="coloredNoise1" result="noise1Clipped" />
<feFlood flood-color="rgba(8, 3, 3, 0.25)" result="color1Flood" />
<feComposite operator="in" in2="noise1Clipped" in="color1Flood" result="color1" />
<feMerge result="effect1_noise_27_2">
<feMergeNode in="shape" />
<feMergeNode in="color1" />
</feMerge>
</filter>
<filter id="filter7_ddi_27_2" x="506" y="196" width="205" height="205" filterUnits="userSpaceOnUse" color-interpolation-filters="sRGB">
<feFlood flood-opacity="0" result="BackgroundImageFix"/>
<feColorMatrix in="SourceAlpha" type="matrix" values="0 0 0 0 0 0 0 0 0 0 0 0 0 0 0 0 0 0 127 0" result="hardAlpha"/>
<feMorphology radius="12" operator="dilate" in="SourceAlpha" result="effect1_dropShadow_27_2"/>
<feOffset dy="4"/>
<feGaussianBlur stdDeviation="20"/>
<feComposite in2="hardAlpha" operator="out"/>
<feColorMatrix type="matrix" values="0 0 0 0 0.415686 0 0 0 0 0.752941 0 0 0 0 0.862745 0 0 0 0.2 0"/>
<feBlend mode="normal" in2="BackgroundImageFix" result="effect1_dropShadow_27_2"/>
<feColorMatrix in="SourceAlpha" type="matrix" values="0 0 0 0 0 0 0 0 0 0 0 0 0 0 0 0 0 0 127 0" result="hardAlpha"/>
<feOffset dy="4"/>
<feGaussianBlur stdDeviation="2"/>
<feComposite in2="hardAlpha" operator="out"/>
<feColorMatrix type="matrix" values="0 0 0 0 0 0 0 0 0 0 0 0 0 0 0 0 0 0 0.25 0"/>
<feBlend mode="normal" in2="effect1_dropShadow_27_2" result="effect2_dropShadow_27_2"/>
<feBlend mode="normal" in="SourceGraphic" in2="effect2_dropShadow_27_2" result="shape"/>
<feColorMatrix in="SourceAlpha" type="matrix" values="0 0 0 0 0 0 0 0 0 0 0 0 0 0 0 0 0 0 127 0" result="hardAlpha"/>
<feMorphology radius="40" operator="erode" in="SourceAlpha" result="effect3_innerShadow_27_2"/>
<feOffset dy="4"/>
<feGaussianBlur stdDeviation="10"/>
<feComposite in2="hardAlpha" operator="arithmetic" k2="-1" k3="1"/>
<feColorMatrix type="matrix" values="0 0 0 0 0.415686 0 0 0 0 0.752941 0 0 0 0 0.862745 0 0 0 0.2 0"/>
<feBlend mode="normal" in2="shape" result="effect3_innerShadow_27_2"/>
</filter>
<filter id="filter8_d_27_2" x="66.1631" y="280.695" width="1085.43" height="422.489" filterUnits="userSpaceOnUse" color-interpolation-filters="sRGB">
<feFlood flood-opacity="0" result="BackgroundImageFix"/>
<feColorMatrix in="SourceAlpha" type="matrix" values="0 0 0 0 0 0 0 0 0 0 0 0 0 0 0 0 0 0 127 0" result="hardAlpha"/>
<feOffset dy="4"/>
<feGaussianBlur stdDeviation="12.5"/>
<feComposite in2="hardAlpha" operator="out"/>
<feColorMatrix type="matrix" values="0 0 0 0 1 0 0 0 0 0.6 0 0 0 0 0 0 0 0 0.313726 0"/>
<feBlend mode="normal" in2="BackgroundImageFix" result="effect1_dropShadow_27_2"/>
<feBlend mode="normal" in="SourceGraphic" in2="effect1_dropShadow_27_2" result="shape"/>
</filter>
<filter id="filter9_n_27_2" x="1094" y="256" width="20" height="20" filterUnits="userSpaceOnUse" color-interpolation-filters="sRGB">
<feFlood flood-opacity="0" result="BackgroundImageFix"/>
<feBlend mode="normal" in="SourceGraphic" in2="BackgroundImageFix" result="shape"/>
<feTurbulence type="fractalNoise" baseFrequency="2 2" stitchTiles="stitch" numOctaves="3" result="noise" seed="8107" />
<feColorMatrix in="noise" type="luminanceToAlpha" result="alphaNoise" />
<feComponentTransfer in="alphaNoise" result="coloredNoise1">
<feFuncA type="discrete" tableValues="0 0 0 0 1 1 1 1 1 1 1 1 1 1 1 1 1 1 1 1 1 1 1 1 1 1 1 1 1 1 1 1 1 1 1 1 1 1 1 1 1 1 1 1 1 0 0 0 0 0 0 0 0 0 0 0 0 0 0 0 0 0 0 0 0 0 0 0 0 0 0 0 0 0 0 0 0 0 0 0 0 0 0 0 0 0 0 0 0 0 0 0 0 0 0 0 0 0 0 0 "/>
</feComponentTransfer>
<feComposite operator="in" in2="shape" in="coloredNoise1" result="noise1Clipped" />
<feFlood flood-color="rgba(8, 3, 3, 0.4)" result="color1Flood" />
<feComposite operator="in" in2="noise1Clipped" in="color1Flood" result="color1" />
<feMerge result="effect1_noise_27_2">
<feMergeNode in="shape" />
<feMergeNode in="color1" />
</feMerge>
</filter>
<clipPath id="clip0_27_2">
<rect width="1218" height="960" fill="white"/>
</clipPath>
</defs>
</svg>
