<svg id="SvgjsSvg1026" width="288" height="288" xmlns="http://www.w3.org/2000/svg" version="1.1" xmlns:xlink="http://www.w3.org/1999/xlink" xmlns:svgjs="http://svgjs.com/svgjs"><defs id="SvgjsDefs1027"></defs><g id="SvgjsG1028"><svg xmlns="http://www.w3.org/2000/svg" viewBox="0 0 64 64" width="288" height="288"><path fill="#ff6283" d="M23.625 16.554 19.272 12.2a5 5 0 1 0-7.071 0 5 5 0 1 0 0 7.071l5.431 5.429a15.027 15.027 0 0 1 5.993-8.146Z" class="svgShape colorff6283-0 selectable"></path><path fill="#c5dddc" d="m45.079 38.008-.652-.652c-.147.216-.29.435-.447.644H45c.027 0 .052.007.079.008Z" class="svgShape colorc5dddc-1 selectable"></path><path fill="#ff6283" d="M58.87 44.728a5 5 0 0 0-7.071 0l-3.807-3.807c0 .027.008.052.008.079a3 3 0 0 1-3 3h-3v2.5a2.491 2.491 0 0 1-.771 1.8l3.5 3.5a5 5 0 1 0 7.071 0 5 5 0 0 0 7.071-7.071Z" class="svgShape colorff6283-2 selectable"></path><path fill="#ee1442" d="M58.87 44.728a4.952 4.952 0 0 0-2.3-1.289 5 5 0 0 1-7.109 7.025 4.986 4.986 0 0 1-4.773 8.361c.014.014.023.031.037.045A5 5 0 0 0 51.8 51.8a5 5 0 0 0 7.071-7.071zM23.625 16.554s-7.061 2.6-8.339 5.8l2.346 2.346a15.027 15.027 0 0 1 5.993-8.146zM45 47a6.006 6.006 0 0 0 5.488-3.583l-2.5-2.5c0 .027.008.052.008.079a3 3 0 0 1-3 3H42v2.5a2.491 2.491 0 0 1-.771 1.8l2.113 2.113A5.475 5.475 0 0 0 44.978 47z" class="svgShape coloree1442-3 selectable"></path><path fill="#ff6283" d="M58.87 12.2a5 5 0 0 0-7.071 0 5 5 0 1 0-7.071 0l-4.353 4.353a15.027 15.027 0 0 1 5.993 8.147l5.432-5.428a5 5 0 0 0 7.07-7.072zM22.771 48.3A2.491 2.491 0 0 1 22 46.5V44h-3a3 3 0 0 1-3-3c0-.027.007-.052.008-.079L12.2 44.728a5 5 0 1 0 0 7.071 5 5 0 1 0 7.071 0z" class="svgShape colorff6283-4 selectable"></path><path fill="#ee1442" d="M20.5 55.949a4.98 4.98 0 0 1-8.5-3.905 4.988 4.988 0 1 0 8.7 3.66c-.069.08-.123.169-.2.245zm-7.07-7.071a4.98 4.98 0 0 1-8.5-3.905 4.979 4.979 0 0 0 7.079 6.983 4.955 4.955 0 0 1 1.421-3.078zm26.945-32.324a15.027 15.027 0 0 1 5.993 8.146l2.346-2.346c-1.278-3.199-8.339-5.8-8.339-5.8zM22 46.5V44h-3a3 3 0 0 1-3-3c0-.027.007-.052.008-.079l-2.5 2.5A6.006 6.006 0 0 0 19 47h.022a5.475 5.475 0 0 0 1.636 3.413l2.113-2.113A2.491 2.491 0 0 1 22 46.5z" class="svgShape coloree1442-5 selectable"></path><path fill="#f5dbe4" d="M45 38h-1.02a15 15 0 1 0-23.96 0H19a3 3 0 0 0 0 6h3v2.5a2.5 2.5 0 0 0 5 0 2.5 2.5 0 0 0 5 0 2.5 2.5 0 0 0 5 0 2.5 2.5 0 0 0 5 0V44h3a3 3 0 0 0 0-6Z" class="svgShape color88d3d1-6 selectable"></path><circle cx="26" cy="27" r="4" fill="#d1d9ff" class="svgShape color2e9989-7 selectable"></circle><circle cx="38" cy="27" r="4" fill="#d2dafd" class="svgShape color2e9989-8 selectable"></circle><path fill="#f7c1b3" d="m31.168 36.445-2.132 3.2a1 1 0 0 0 .833 1.554h4.262a1 1 0 0 0 .833-1.554l-2.132-3.2a1 1 0 0 0-1.664 0Z" class="svgShape color2e9989-9 selectable"></path><path fill="#fccbda" d="M42 44v-.1q-.987.1-2 .1a21 21 0 0 1-21-21c0-.538.041-1.066.081-1.594A14.91 14.91 0 0 0 20.02 38H19a3 3 0 0 0 0 6h3v2.5a2.5 2.5 0 0 0 5 0 2.5 2.5 0 0 0 5 0 2.5 2.5 0 0 0 5 0 2.5 2.5 0 0 0 5 0Z" class="svgShape color33b1a2-10 selectable"></path><ellipse cx="36.295" cy="17.984" fill="#ffc3df" rx="1.5" ry="3" transform="rotate(-60 36.296 17.984)" class="svgShape colorc5dddc-11 selectable"></ellipse><path fill="#e3e9ff" d="M28 29.8a3.986 3.986 0 0 1-2.955-6.676 3.993 3.993 0 1 0 3.91 6.548A3.963 3.963 0 0 1 28 29.8zm8-4a3.973 3.973 0 0 1 1.045-2.676 3.993 3.993 0 1 0 3.91 6.548A3.956 3.956 0 0 1 36 25.8zm-4.964 12.645 1.507-2.26a.984.984 0 0 0-1.375.26l-2.132 3.2a1 1 0 0 0 .833 1.554h4.262A1 1 0 0 0 35.1 40h-3.231a1 1 0 0 1-.833-1.555z" class="svgShape color33b1a2-12 selectable"></path><path d="M51.092 44.021a1 1 0 0 0 1.414 1.414 4 4 0 1 1 0 5.657 1 1 0 1 0-1.414 1.414 4 4 0 1 1-5.657 0 1 1 0 0 0-1.414-1.414 6 6 0 1 0 10.121 3.05 6 6 0 1 0-3.05-10.121zm-38.95-23.393 1.661 1.66a1 1 0 1 0 1.414-1.414l-2.309-2.309a1 1 0 0 0-1.414 0 4 4 0 1 1 0-5.657 1 1 0 1 0 1.414-1.414 4 4 0 1 1 5.657 0 1 1 0 0 0 0 1.414l1.5 1.5A1 1 0 0 0 21.482 13l-.854-.855A6 6 0 1 0 9.854 9.857a6 6 0 1 0 2.288 10.771zm30.376-6.216a1 1 0 0 0 1.414 0l1.5-1.5a1 1 0 0 0 0-1.414 4 4 0 1 1 5.657 0 1 1 0 1 0 1.414 1.414 4 4 0 1 1 0 5.657 1 1 0 0 0-1.414 0l-2.309 2.309a1 1 0 1 0 1.42 1.41l1.66-1.66a6 6 0 1 0 2.286-10.771 6.046 6.046 0 0 0 .118-1.192 6 6 0 1 0-10.892 3.478l-.854.857a1 1 0 0 0 0 1.412zm-23.953 36.68a1 1 0 0 0 0 1.414 4 4 0 1 1-5.657 0 1 1 0 1 0-1.414-1.414 4 4 0 1 1 0-5.657 1 1 0 1 0 1.414-1.414 6 6 0 1 0-3.05 10.121 6 6 0 1 0 10.121-3.05 1 1 0 0 0-1.414 0zM31 27a1 1 0 0 0-2 0 3 3 0 1 1-3-3 2.946 2.946 0 0 1 1.5.419 1 1 0 0 0 1-1.729A4.925 4.925 0 0 0 26 22a5 5 0 1 0 5 5zm7-5a4.925 4.925 0 0 0-2.5.69 1 1 0 0 0 1 1.729A2.946 2.946 0 0 1 38 24a3 3 0 1 1-3 3 1 1 0 0 0-2 0 5 5 0 1 0 5-5z" fill="#000000" class="svgShape color000000-13 selectable"></path><path d="M43 45h2a4 4 0 0 0 .8-7.92A15.808 15.808 0 0 0 48 29a16 16 0 0 0-32 0 15.808 15.808 0 0 0 2.2 8.08A4 4 0 0 0 19 45h2v1.5a3.5 3.5 0 0 0 6 2.447 3.494 3.494 0 0 0 5 0 3.494 3.494 0 0 0 5 0 3.5 3.5 0 0 0 6-2.447Zm-2-1v2.5a1.5 1.5 0 0 1-3 0 1 1 0 0 0-2 0 1.5 1.5 0 0 1-3 0 1 1 0 0 0-2 0 1.5 1.5 0 0 1-3 0 1 1 0 0 0-2 0 1.5 1.5 0 0 1-3 0V44a1 1 0 0 0-1-1h-3a2 2 0 0 1 0-4h1.021a1 1 0 0 0 .8-1.6A13.871 13.871 0 0 1 18 29a14 14 0 0 1 28 0 13.871 13.871 0 0 1-2.819 8.4 1 1 0 0 0 .8 1.6H45a2 2 0 0 1 0 4h-3a1 1 0 0 0-1 1Z" fill="#000000" class="svgShape color000000-14 selectable"></path><path d="M33.664 35.891a2 2 0 0 0-3.328 0l-2.132 3.2a2 2 0 0 0 1.664 3.109h4.264a2 2 0 0 0 1.668-3.112Zm-3.8 4.306L32 37l2.132 3.2Z" fill="#060606" class="svgShape color000000-15 selectable"></path></svg></g></svg>