<svg xmlns="http://www.w3.org/2000/svg" viewBox="0 0 340 340" id="medieval-flag">
  <path fill="#ffb655" d="M66.013 44.755a12.807 12.807 0 0 0-9.974 3.051 6.724 6.724 0 0 1-8.022.689 27.3 27.3 0 0 1-4.046-3.145 11.009 11.009 0 0 0-4.224-2.467q-4.16 8.538-2.266 21.126c4.029.892 8.7-2.772 12.032-1.066 13.555 6.93 28.442 5.144 27.718-6.893a12.9 12.9 0 0 0-11.218-11.295zm240.476-29.733s-15.534 30.641-49.317 31.908l-1.549 10.664c25.5 15.619 48.869 19.107 57.319-.069 0 0 .179-23.502-6.453-42.503zM237.142 46.93h-115.26l-4.647 17.426h123.969l-4.062-17.426z"></path>
  <path fill="#f27b31" d="M77.274 56.8c-1.786 3.518-4.535 7.311-10.583 7.311-5.5 0-7.777-2.884-9.731-4.068-2.438-1.478-4.786-1.439-7.585-.9-10.57 2.03-10.244-10.739-9.631-16.249a10.982 10.982 0 0 0-3.3-.516h-7.327v30.3h7.326a11.012 11.012 0 0 0 7.528-2.978 27.389 27.389 0 0 1 3.916-3.062 6.737 6.737 0 0 1 8.067.531A12.839 12.839 0 0 0 77.274 56.8Z"></path>
  <path fill="#ffb655" d="M34.034 43.216a7.948 7.948 0 0 0-15.281-4.242 58 58 0 0 0-2.808 18.551 9.242 9.242 0 0 0 9.133 7.038 7.353 7.353 0 0 0 7.822-7.038 75.219 75.219 0 0 1 1.134-14.309Z"></path>
  <path fill="#f27b31" d="M27.528 81.271a7.939 7.939 0 0 0 6.506-9.437A75.219 75.219 0 0 1 32.9 57.525c-11.7 6.172-16.957 0-16.957 0a58 58 0 0 0 2.808 18.551 7.868 7.868 0 0 0 8.777 5.195zm278.961 18.757c6.632-19 6.453-42.5 6.453-42.5s.156-20.582-5.26-38.8l-5.559 3.815c4.017 11.8 2.448 25.616.345 35.346a9.594 9.594 0 0 1-13.187 6.835c-12.276-5.422-26.262-6.848-29.841-7.136V68.12c33.784 1.267 47.049 31.908 47.049 31.908z"></path>
  <path fill="#f27b31" d="M262.547 57.9c-.588-.069-1.2-.126-1.79-.173a3.892 3.892 0 0 1-3.585-3.88V46.93h-20.03v10.6H125.776a3.893 3.893 0 0 1-3.894-3.893v-6.7H82.823a10.826 10.826 0 0 0-10.945 10.4A10.6 10.6 0 0 0 82.472 68.12H259.44a20.847 20.847 0 0 0 3.107-10.22Z"></path>
  <path fill="#fe5d77" d="M170.131 116.775h33.626A24.042 24.042 0 0 0 227.8 92.733V45.591a9.9 9.9 0 0 1 9.9-9.9 9.9 9.9 0 0 1 9.9 9.9v286.915l-77.467-55.921a1097.5 1097.5 0 0 1-.002-159.81Z"></path>
  <path fill="#655baa" d="M170.131 116.775h-33.626a24.042 24.042 0 0 1-24.042-24.042V45.591a9.9 9.9 0 0 0-9.9-9.9 9.9 9.9 0 0 0-9.9 9.9v286.915l77.468-55.921Z"></path>
  <path fill="#ffb655" d="M203.971 195.14a8.9 8.9 0 0 1-14.347-4.959 62.209 62.209 0 0 1-1.172-13.091.914.914 0 0 0-1.777-.3c-6.748 18.318-16.544 16.623-16.544 16.623s-9.8 1.695-16.544-16.623a.914.914 0 0 0-1.777.3 62.276 62.276 0 0 1-1.172 13.091 8.9 8.9 0 0 1-14.347 4.959 58.442 58.442 0 0 1-11.043-12.24.914.914 0 0 0-1.664.632c.919 6.6 3.294 20.15 8.459 31.856a7.59 7.59 0 0 0 9.582 4 80.2 80.2 0 0 1 57.011 0 7.59 7.59 0 0 0 9.582-4c5.166-11.706 7.541-25.258 8.459-31.856a.913.913 0 0 0-1.663-.632 58.5 58.5 0 0 1-11.043 12.24zM317.659 14.521a9.935 9.935 0 0 0-9.541-7.027 7.7 7.7 0 0 0-7.389 9.822 150.812 150.812 0 0 1 5.939 40.209c0 3.617-.166 7.166-.453 10.6 5.836 9.2 17.84.975 17.441-18.629-.611-8.396-2.15-22.112-5.997-34.975z"></path>
  <path fill="#f27b31" d="M324.055 57.525s-.04-3.1-.4-8.028c-.055 22.738-17.442 18.623-17.442 18.623v.006a158.014 158.014 0 0 1-5.479 29.608 7.7 7.7 0 0 0 7.389 9.822 9.935 9.935 0 0 0 9.541-7.027c6.104-20.424 6.391-43.004 6.391-43.004Z"></path>
</svg>
