<svg xmlns="http://www.w3.org/2000/svg" id="medievalknighthelmet" viewBox="0 0 64 64">
  <path d="M55.98,16.58h-2.58c-3.45-8.75-11.96-14.58-21.41-14.58S14.05,7.83,10.6,16.58h-2.58c-1.02,0-1.85.83-1.85,1.85v3.97c0,1.02.83,1.85,1.85,1.85h1.01c-.01.25-.03.5-.03.74v27.76c0,.31.15.61.4.8l11,8.25c.3.23.71.26,1.05.09s.55-.51.55-.89v-19c0-.17-.04-.34-.13-.49l-4.82-8.52h9.62v20.75c0,.55.44,1,1,1h8.66c.56,0,1-.45,1-1v-20.75h9.62l-4.82,8.52c-.09.15-.13.32-.13.49v19c0,.38.21.72.55.89.14.07.29.11.45.11.21,0,.42-.07.6-.2l11-8.25c.25-.19.4-.49.4-.8v-27.76c0-.24-.02-.49-.03-.74h1.01c1.02,0,1.85-.83,1.85-1.85v-3.97c0-1.02-.83-1.85-1.85-1.85ZM31.99,4c8.37,0,15.93,5,19.26,12.58H12.75c3.33-7.58,10.88-12.58,19.24-12.58ZM53,52.25l-9,6.75v-16.73l5.54-9.78c.17-.31.17-.69-.01-1-.18-.31-.51-.5-.86-.5h-12.34c-.55,0-1,.45-1,1v20.75h-6.66v-20.75c0-.55-.45-1-1-1h-12.34c-.35,0-.68.19-.86.5-.18.31-.18.69-.01,1l5.54,9.78v16.73l-9-6.75v-27.26c0-.24,0-.49.01-.74h41.98c.01.25.01.5.01.74v27.26Z" fill="#ffffff" class="color000000 svgShape"></path>
</svg>
