<svg id="SvgjsSvg1001" width="288" height="288" xmlns="http://www.w3.org/2000/svg" version="1.1" xmlns:xlink="http://www.w3.org/1999/xlink" xmlns:svgjs="http://svgjs.com/svgjs"><defs id="SvgjsDefs1002"></defs><g id="SvgjsG1008"><svg xmlns="http://www.w3.org/2000/svg" enable-background="new 0 0 128 128" viewBox="0 0 128 128" width="288" height="288"><path fill="#ffb300" d="M68.1 87c-2.6-.2-2.1-2.7-1.6-4.6 0 0 4.4-16.5 4.4-16.5 1.2-4.7-2.3-9.3-7.1-9.3-3.3 0-6.3 2.2-7.1 5.5-.6 2.4-5.7 23.4-5.8 23.5-.7 3-1.6 6.8-.3 9.7 2 4.5 8 3.2 11.7 2.1 2.5-.7 4.9-1.8 7.2-3.1 2.4-1.5 7.3-5.7 7.3-5.8 0 0-.5-4.9-.5-4.9C74.3 85.2 70.7 87.2 68.1 87zM69.9 29.6c-5.5-.3-10.9 4.6-11.1 10.2-.1 1.7.4 3.3 1.2 4.7 3.4 5.5 11.2 4.3 15.4.5C81 40 77.2 30 69.9 29.6z" class="svgShape color2e79be-0 selectable"></path><path fill="#ffb300" d="M64,2.6C30.1,2.6,2.6,30.1,2.6,64c0,33.9,27.6,61.4,61.4,61.4c33.9,0,61.4-27.6,61.4-61.4
		C125.4,30.1,97.9,2.6,64,2.6z M64,112.2c-26.6,0-48.2-21.6-48.2-48.2c0-26.6,21.6-48.2,48.2-48.2c26.6,0,48.2,21.6,48.2,48.2
		C112.2,90.6,90.6,112.2,64,112.2z" class="svgShape color2d3e50-1 selectable"></path></svg></g></svg>