<svg xmlns="http://www.w3.org/2000/svg" width="32" height="32" id="love">
  <path fill="#ff5855" d="M11.863 6.508c-3.517 0-6.368 2.437-6.368 6.872 0 4.434 5.944 8.704 11.039 13.286C21.629 22.084 27.6 17.869 27.6 13.38c0-4.489-2.852-6.872-6.369-6.872-1.855 0-3.533 1.384-4.697 2.749-1.163-1.357-2.823-2.75-4.67-2.75z"></path>
  <path fill="#ff7a6c" d="M21.025 6.52c-.296 0-.594.061-.88.126 2.963.473 4.373 2.742 4.373 6.725 0 4.197-4.37 8.143-9.213 12.383.34.3.67.58 1.006.88 5.094-4.58 11.063-8.773 11.063-13.263 0-4.488-2.832-6.851-6.349-6.851z"></path>
  <path fill="#d94c4a" d="M11.947 6.608c.296 0 .594.061.88.126-2.964.473-4.175 2.743-4.175 6.726 0 4.197 3.626 8.788 8.468 13.029-.34.298-.124-.067-.46.234C11.567 22.14 5.599 17.949 5.599 13.46c0-4.489 2.831-6.852 6.349-6.852z"></path>
  <path fill="none" stroke="#560f65" stroke-linecap="round" stroke-linejoin="round" d="M11.863 6.508c-3.517 0-6.368 2.437-6.368 6.872 0 4.434 5.944 8.704 11.039 13.286C21.629 22.084 27.6 17.869 27.6 13.38c0-4.489-2.852-6.872-6.369-6.872-1.855 0-3.533 1.384-4.697 2.749-1.163-1.357-2.823-2.75-4.67-2.75z"></path>
  <path fill="none" stroke="#f2f0e7" stroke-linecap="round" stroke-linejoin="round" d="M24.93 13.84c-.013-2.495-1.284-4.254-3.17-5.086"></path>
</svg>
