<svg xmlns="http://www.w3.org/2000/svg" viewBox="0 0 512 512" id="medieval-key">
  <ellipse cx="424.22" cy="81.79" rx="8.1" ry="8.08"></ellipse>
  <ellipse cx="310.42" cy="195.32" rx="8.1" ry="8.08"></ellipse>
  <ellipse cx="310.42" cy="81.79" rx="8.1" ry="8.08"></ellipse>
  <ellipse cx="424.22" cy="195.32" rx="8.1" ry="8.08"></ellipse>
  <path fill="#f69531" d="M102.19 468.88 85.3 452l22.9-22.85 31.39 31.34a16.47 16.47 0 0 0 23.26 0l.36-.36a16.46 16.46 0 0 0 0-23.31l-31.34-31.29 224.66-224.06-29.47-29.41L24.72 453.63a20.22 20.22 0 0 0 0 28.62l.38.37a20.84 20.84 0 0 0 29.49.07l7.05-7 17 16.9a16.71 16.71 0 0 0 23.6 0 16.71 16.71 0 0 0-.05-23.71Z"></path>
  <path fill="#f48a31" d="m46.63 475.66-7.05 7a20.63 20.63 0 0 1-7.19 4.67 20.77 20.77 0 0 0 21.72-4.25zM85.3 452l15.4-15.36-7.5-7.49L70.3 452l16.89 16.84a16.69 16.69 0 0 1-4.3 26.77 16.71 16.71 0 0 0 19.3-26.77zm46.57-46.42 224.66-224.11-29.47-29.41-7.51 7.48 22 21.93-224.68 224.11 31.34 31.29a16.46 16.46 0 0 1 0 23.31l-.36.36a16.41 16.41 0 0 1-4.12 3 16.46 16.46 0 0 0 19.12-3l.36-.36a16.46 16.46 0 0 0 0-23.31z"></path>
  <path fill="#f9a242" d="M456.69 227.71a66.62 66.62 0 0 0 4.71-89.16 66.81 66.81 0 0 0-94.08-93.85 66.81 66.81 0 0 0-94.07 93.85 66.81 66.81 0 0 0 94.07 93.85 67 67 0 0 0 89.37-4.69Z"></path>
  <path fill="#f48a31" d="M352.32 232.4a66.58 66.58 0 0 1-34.57 14.41 67 67 0 0 0 42.07-9.16 67.47 67.47 0 0 1-7.5-5.25zm0-187.7a67.47 67.47 0 0 1 7.5-5.25 67 67 0 0 0-42.07-9.16 66.66 66.66 0 0 1 34.57 14.41zm104.37 4.7a66.84 66.84 0 0 0-54.79-19.11 66.71 66.71 0 0 1 44.5 108.26 66.7 66.7 0 0 1-44.5 108.26 66.73 66.73 0 0 0 59.5-108.26 66.61 66.61 0 0 0-4.71-89.15z"></path>
  <path fill="#fed947" d="M243 145.71a7.5 7.5 0 0 1 0-15l250.19-.93a7.5 7.5 0 0 1 0 15l-250.18.93Z"></path>
  <path fill="#fed947" d="M366.05 271.65a7.51 7.51 0 0 1-7.48-7.53l.93-249.58a7.5 7.5 0 0 1 7.5-7.47 7.49 7.49 0 0 1 7.47 7.52l-.93 249.59a7.5 7.5 0 0 1-7.49 7.47Z"></path>
  <ellipse cx="424.22" cy="81.79" fill="#fff" rx="8.1" ry="8.08"></ellipse>
  <ellipse cx="310.42" cy="195.32" fill="#fff" rx="8.1" ry="8.08"></ellipse>
  <ellipse cx="310.42" cy="81.79" fill="#fff" rx="8.1" ry="8.08"></ellipse>
  <ellipse cx="424.22" cy="195.32" fill="#fff" rx="8.1" ry="8.08"></ellipse>
  <ellipse cx="366.97" cy="138.9" fill="#fff" rx="34.01" ry="33.93"></ellipse>
  <path fill="#e1e1e3" d="M391 114.91a34 34 0 0 0-31.56-9.1 33.9 33.9 0 0 1 0 66.18A33.94 33.94 0 0 0 391 114.91Z"></path>
</svg>
