<svg xmlns="http://www.w3.org/2000/svg" viewBox="0 0 340 340" id="sword">
  <path fill="#7f91bf" d="m294.393 66.181-18.815-18.815c-55.5 46.471-112.441 104.88-170.228 170.228l18.815 18.815Z"></path>
  <path fill="#f0f7ff" d="m177.671 145.273 97.907-97.907-18.814-18.815-97.617 97.617 18.524 19.105z"></path>
  <path fill="#f0f7ff" d="m297.994 24.95-3.601 41.23-33.448-4.181-4.181-33.448 41.23-3.601z"></path>
  <path fill="#7f91bf" d="m159.772 163.172-18.973-18.656-54.264 54.263 18.815 18.815 20.384-20.383-.001-.001.001.001 34.038-34.039z"></path>
  <path fill="#3c3c4f" d="m50.687 281.44-9.184-9.185a9.754 9.754 0 0 1 0-13.794L88.8 211.165l22.98 22.98-47.296 47.297a9.754 9.754 0 0 1-13.797-.003Z"></path>
  <path fill="#ffc362" d="m60.394 196.414 33.068 33.068q9.57-2.935 13.655-13.655L67.97 176.679l-7.576 7.577a8.6 8.6 0 0 0 0 12.158Z"></path>
  <circle cx="32.811" cy="290.133" r="24.931" fill="#ffc362"></circle>
  <circle cx="32.811" cy="290.133" r="8.799" fill="#fa883e"></circle>
  <path fill="#fa883e" d="m107.117 215.827 39.148 39.147-7.577 7.577a8.6 8.6 0 0 1-12.158 0l-33.068-33.069Z"></path>
  <path fill="#7f91bf" d="m45.424 66.181 18.815-18.815c55.5 46.471 112.441 104.88 170.228 170.228l-18.815 18.815Z"></path>
  <path fill="#f0f7ff" d="M83.053 28.551 64.239 47.366l149.844 149.845c11.541-1.207 20.692-4.6 27.552-10.078Z"></path>
  <path fill="#f0f7ff" d="m41.823 24.95 3.601 41.23 33.448-4.181 4.181-33.448-41.23-3.601z"></path>
  <path fill="#7f91bf" d="m234.467 217.594 18.815-18.815-11.647-11.646-27.552 10.078 20.384 20.383z"></path>
  <path fill="#3c3c4f" d="m228.038 234.143 22.98-22.98 47.297 47.296a9.754 9.754 0 0 1 0 13.794l-9.187 9.187a9.754 9.754 0 0 1-13.794 0l-47.296-47.297Z"></path>
  <path fill="#ffc362" d="m279.424 196.414-33.069 33.068q-9.57-2.935-13.655-13.655l39.147-39.148 7.577 7.577a8.6 8.6 0 0 1 0 12.158Z"></path>
  <circle cx="307.006" cy="290.133" r="24.931" fill="#ffc362"></circle>
  <circle cx="307.006" cy="290.133" r="8.799" fill="#fa883e"></circle>
  <path fill="#fa883e" d="m232.7 215.827-39.148 39.147 7.577 7.577a8.6 8.6 0 0 0 12.158 0l33.068-33.069Z"></path>
  <path fill="#3c3c4f" d="M33.024 318.551c16.32.287 30.2-14.714 28.294-31.236a13.169 13.169 0 0 0 5.853-3.4l12.51-12.51 25.484-25.484 19.1 19.1a12.153 12.153 0 0 0 17.107 0l7.576-7.576a3.5 3.5 0 0 0 0-4.95L131.1 234.642l38.92-38.921 38.921 38.92-17.863 17.859a3.5 3.5 0 0 0 0 4.95l7.576 7.576a12.154 12.154 0 0 0 17.107 0l19.1-19.1 25.488 25.488 12.506 12.507a13.186 13.186 0 0 0 5.853 3.395c-1.9 16.525 11.977 31.529 28.294 31.24 24.969.171 38-30.707 20.1-48.521a28.381 28.381 0 0 0-22.921-8.173 13.181 13.181 0 0 0-3.4-5.87l-37.994-37.994 19.1-19.1a12.11 12.11 0 0 0 0-17.108l-7.577-7.577a3.5 3.5 0 0 0-4.949 0l-17.857 17.858-38.92-38.92 84.486-84.486a3.8 3.8 0 0 0 1.012-2.171l3.6-41.231a3.519 3.519 0 0 0-3.791-3.791l-41.23 3.6a3.8 3.8 0 0 0-2.17 1.012l-84.487 84.487-84.476-84.495a3.8 3.8 0 0 0-2.17-1.012l-41.23-3.6a3.523 3.523 0 0 0-3.791 3.791l3.6 41.231a3.8 3.8 0 0 0 1.012 2.171l84.487 84.486-38.921 38.92L70.657 174.2a3.6 3.6 0 0 0-4.949 0l-7.576 7.576a12.11 12.11 0 0 0 0 17.108l19.1 19.1-38 37.994a13.16 13.16 0 0 0-3.4 5.87c-16.154-1.9-31.522 11.62-31.246 28.278-.298 15.463 13.314 28.742 28.438 28.425Zm36.47-82.918a42.5 42.5 0 0 0 17.912 18.148L76.388 264.8c-4.355-1.921-14.74-7.513-17.89-18.17Zm56.651-5.941-13.865-13.865 38.92-38.921 13.865 13.866ZM52.959 68.766l24.649-3.081L227.75 215.827l-13.865 13.865Zm228.573 177.863c-3.134 10.6-13.537 16.226-17.9 18.164l-11.012-11.012a42.5 42.5 0 0 0 17.912-18.147Zm40.629 28.35c19.27 20.935-9.379 49.579-30.31 30.308-19.315-20.767 9.44-49.654 30.31-30.308ZM297.354 263.4a28.641 28.641 0 0 0-17.1 17.077c-2.05-.283-9.732-9.1-11.356-10.421 5.443-2.782 13.9-8.422 18.084-17.977 1.382 1.682 10.09 9.252 10.372 11.321Zm-32.069-33.015a35.348 35.348 0 0 1-17.89 18.171l-7.58-7.581 18.03-18.03Zm6.562-48.753 5.1 5.1a5.1 5.1 0 0 1 0 7.207l-66.138 66.138a5.121 5.121 0 0 1-7.208 0l-5.1-5.1ZM232.7 210.877 82.557 60.735l3.082-24.649 160.926 160.926Zm-38.92-76.55 68.642-68.642 24.649 3.081-79.426 79.426ZM294.357 28.8l-2.921 33.458-27.142-3.393-3.394-27.143Zm-39.965 7.287 3.081 24.649-68.643 68.641-13.865-13.865ZM79.13 31.722l-3.394 27.142L48.6 62.257 45.673 28.8Zm53.255 126.37 13.865 13.865-38.92 38.92-13.865-13.865Zm-69.3 28.638 5.1-5.1 73.344 73.345-5.1 5.1a5.1 5.1 0 0 1-7.209 0l-66.139-66.137a5.1 5.1 0 0 1 0-7.208Zm37.134 54.242-7.575 7.575a35.594 35.594 0 0 1-17.895-18.165l7.44-7.44ZM44.19 260.936l8.861-8.861c4.181 9.555 12.641 15.2 18.083 17.978-1.674 1.374-9.289 10.124-11.356 10.42a28.635 28.635 0 0 0-17.1-17.075 6.22 6.22 0 0 1 1.512-2.462Zm-26.321 14.043a21.458 21.458 0 0 1 30.31 0c19.313 20.765-9.437 49.657-30.31 30.308-8.313-7.977-8.315-22.331 0-30.308Z"></path>
  <path fill="#3c3c4f" d="M33.023 302.426c10.806.072 16.438-13.282 8.7-20.99a12.316 12.316 0 0 0-17.394 0c-7.744 7.711-2.106 21.064 8.694 20.99zm-3.747-16.04c5.069-4.813 12.306 2.423 7.5 7.493-5.076 4.811-12.31-2.422-7.5-7.493zm277.73 16.04c10.805.073 16.437-13.284 8.7-20.989a12.314 12.314 0 0 0-17.393 0c-7.745 7.707-2.108 21.063 8.693 20.989zm-3.747-16.039c5.071-4.812 12.305 2.424 7.5 7.493-5.077 4.81-12.31-2.423-7.5-7.493z"></path>
</svg>
