<svg xmlns="http://www.w3.org/2000/svg" fill="none" viewBox="0 0 3000 3000" id="Werewolf">
  <path fill="#ffffff" d="M406.885 750.707C397.999 776.879 397.614 805.19 405.786 831.594C407.175 836.057 406.771 840.885 404.661 845.055C402.55 849.225 398.898 852.41 394.479 853.933C392.66 854.523 390.761 854.831 388.849 854.848C385.246 854.881 381.726 853.768 378.797 851.67C375.868 849.572 373.681 846.598 372.553 843.177C372.114 841.896 371.792 840.578 371.591 839.239C366.968 824.236 364.668 808.613 364.77 792.913C364.788 774.763 367.757 756.736 373.559 739.538C374.293 737.35 375.45 735.328 376.965 733.587C378.48 731.846 380.323 730.42 382.389 729.392C384.455 728.363 386.703 727.751 389.005 727.592C391.307 727.432 393.619 727.727 395.807 728.46C397.995 729.194 400.017 730.351 401.758 731.866C403.499 733.381 404.925 735.224 405.953 737.29C406.982 739.356 407.594 741.604 407.754 743.906C407.913 746.208 407.618 748.519 406.885 750.707ZM668.588 858.236C670.431 858.862 672.363 859.187 674.31 859.197C677.971 859.204 681.542 858.065 684.523 855.938C687.503 853.812 689.742 850.805 690.927 847.341C702.515 813.803 703.061 777.436 692.483 743.566L691.933 741.918C691.206 739.796 690.063 737.839 688.571 736.164C687.078 734.488 685.267 733.126 683.243 732.159C681.218 731.191 679.021 730.637 676.78 730.529C674.539 730.42 672.299 730.76 670.19 731.527C665.761 733.157 662.13 736.43 660.05 740.666C657.97 744.902 657.602 749.777 659.02 754.278C667.263 780.934 666.798 809.523 657.693 835.897C656.178 840.304 656.474 845.133 658.517 849.321C660.56 853.51 664.182 856.716 668.588 858.236ZM493.722 666.341C520.04 658.277 548.216 658.613 574.334 667.303C576.116 667.917 577.988 668.227 579.873 668.218C584.044 668.215 588.078 666.727 591.254 664.022C594.429 661.317 596.538 657.571 597.204 653.453C597.87 649.335 597.05 645.115 594.889 641.547C592.729 637.979 589.369 635.295 585.412 633.977C552.663 623.084 517.352 622.556 484.292 632.467L481.82 633.245C479.679 633.967 477.703 635.108 476.007 636.6C474.311 638.093 472.929 639.908 471.94 641.94C470.952 643.972 470.378 646.18 470.251 648.436C470.124 650.692 470.446 652.95 471.2 655.08C472.749 659.521 475.968 663.182 480.174 665.285C484.381 667.388 489.241 667.767 493.722 666.341ZM532.312 960.546C549.219 960.488 566.017 957.832 582.117 952.671L582.164 952.854C586.529 951.39 590.137 948.256 592.196 944.137C594.255 940.019 594.598 935.252 593.15 930.882C591.713 926.472 588.596 922.807 584.473 920.681C580.351 918.556 575.557 918.142 571.131 919.529C544.581 927.713 516.122 927.28 489.833 918.293C485.414 916.787 480.577 917.099 476.388 919.159C472.199 921.22 468.999 924.86 467.494 929.279C465.988 933.698 466.3 938.535 468.36 942.724C470.421 946.913 474.061 950.113 478.48 951.618C495.816 957.514 514.001 960.53 532.312 960.546ZM1254.11 539.724C1279.82 553.318 1308.28 560.879 1337.34 561.834H1337.89C1342.5 561.835 1346.93 560.021 1350.22 556.782C1353.51 553.544 1355.4 549.142 1355.47 544.526C1355.54 539.91 1353.8 535.451 1350.61 532.112C1347.42 528.772 1343.05 526.821 1338.43 526.678C1314.72 525.887 1291.5 519.737 1270.5 508.687C1268.46 507.611 1266.23 506.947 1263.94 506.733C1261.65 506.519 1259.33 506.758 1257.13 507.439C1254.93 508.119 1252.88 509.226 1251.11 510.697C1249.33 512.168 1247.87 513.974 1246.79 516.012C1245.71 518.049 1245.05 520.279 1244.84 522.574C1244.62 524.868 1244.86 527.183 1245.54 529.385C1246.22 531.586 1247.33 533.633 1248.8 535.407C1250.27 537.181 1252.08 538.648 1254.11 539.724ZM1167.46 445.745C1169.29 450.031 1172.75 453.413 1177.08 455.147C1181.41 456.881 1186.24 456.825 1190.53 454.992C1194.82 453.159 1198.2 449.698 1199.93 445.372C1201.67 441.045 1201.61 436.206 1199.78 431.921C1197.93 427.66 1196.31 423.305 1194.92 418.874C1189.85 403.295 1187.25 387.013 1187.23 370.626L1187.46 362.798C1187.58 360.486 1187.25 358.173 1186.47 355.992C1185.7 353.81 1184.5 351.803 1182.95 350.085C1181.4 348.367 1179.52 346.973 1177.43 345.981C1175.34 344.989 1173.07 344.419 1170.76 344.305C1168.44 344.191 1166.13 344.533 1163.95 345.314C1161.77 346.094 1159.77 347.297 1158.06 348.854C1156.34 350.41 1154.95 352.289 1153.97 354.383C1152.98 356.478 1152.42 358.746 1152.31 361.058C1152.17 364.171 1152.08 367.421 1152.08 370.626C1152.07 390.651 1155.24 410.551 1161.46 429.585C1163.2 435.079 1165.22 440.482 1167.46 445.745ZM2807.12 2358.83L2807.08 2358.88C2803.86 2361.38 2801.34 2364.67 2799.77 2368.43C2798.2 2372.19 2797.62 2376.3 2798.1 2380.35C2810.62 2448.13 2809.3 2517.75 2794.21 2585.01L2725.32 2892.08C2722.99 2902.47 2717.19 2911.76 2708.88 2918.42C2700.57 2925.07 2690.24 2928.7 2679.59 2928.7L382.393 2930.67C379.388 2930.68 376.431 2929.91 373.809 2928.45C371.186 2926.98 368.987 2924.86 367.424 2922.29L293.268 2801.26C254.429 2738.18 235.208 2664.98 238.044 2590.95C240.88 2516.92 265.646 2445.4 309.198 2385.48L372.141 2298.5C374.503 2295.22 377.925 2292.85 381.828 2291.8C385.731 2290.75 389.877 2291.08 393.567 2292.73C397.256 2294.38 400.263 2297.26 402.081 2300.87C403.898 2304.48 404.415 2308.6 403.543 2312.55L383.585 2404.1C372.696 2455.26 378.934 2508.58 401.337 2555.85C404.869 2511.48 422.228 2469.35 450.967 2435.37C520.052 2353.91 612.467 2295.6 715.738 2268.33L793.695 2247.64C797.282 2246.68 801.081 2246.88 804.547 2248.21C808.013 2249.55 810.968 2251.94 812.986 2255.06C815.005 2258.18 815.984 2261.85 815.783 2265.56C815.583 2269.27 814.212 2272.82 811.868 2275.7L707.818 2403.46C688.907 2426.86 676.302 2454.71 671.206 2484.36C666.109 2514.01 668.691 2544.47 678.705 2572.84L703.973 2643.61L726.266 2611.56C781.86 2531.77 858.119 2468.61 946.871 2428.86C966.974 2399.15 990.055 2371.58 1015.76 2346.56L1018.06 2344.31L982.387 2320.66C980.46 2319.38 978.804 2317.74 977.515 2315.82C976.227 2313.91 975.331 2311.75 974.88 2309.49C974.406 2307.22 974.392 2304.88 974.841 2302.61C975.289 2300.33 976.19 2298.18 977.489 2296.26L988.75 2279.41C1071.61 2184.52 1118.8 2063.71 1122.19 1937.78C1123.87 1918.4 1120.17 1898.93 1111.49 1881.52C1102.82 1864.1 1089.51 1849.42 1073.02 1839.09C1056.9 1828.63 1038.19 1822.82 1018.98 1822.31C999.763 1821.8 980.78 1826.61 964.122 1836.2L902.232 1870.9C888.431 1878.62 873.233 1883.53 857.521 1885.33C841.808 1887.13 825.894 1885.8 810.703 1881.4C795.512 1877 781.346 1869.62 769.028 1859.7C756.71 1849.78 746.485 1837.52 738.948 1823.61C736.247 1818.9 733.638 1813.86 731.029 1808.92C728.602 1804.25 726.222 1799.76 723.75 1795.46C719.693 1788.25 717.165 1780.28 716.322 1772.05C715.48 1763.82 716.341 1755.51 718.852 1747.62C721.445 1739.74 725.694 1732.49 731.315 1726.38L685.862 1578.45C677.539 1580.9 669.7 1583.18 662.638 1585.16C659.677 1585.74 656.679 1586.1 653.667 1586.26C646.397 1586.31 639.29 1584.1 633.318 1579.96C627.345 1575.81 622.798 1569.93 620.295 1563.1C617.961 1556.46 608.623 1534.49 596.583 1506.06C588.564 1487.13 579.503 1465.73 570.496 1444.19C449.456 1386.84 346.638 1297.13 273.418 1184.97C200.198 1072.82 159.429 942.593 155.622 808.707C151.814 674.82 185.116 542.49 251.844 426.355C318.572 310.22 416.124 214.806 533.71 150.669C651.296 86.5316 784.331 56.1708 918.1 62.945C1051.87 69.7192 1181.16 113.364 1291.66 189.052C1402.17 264.74 1489.58 369.521 1544.24 491.803C1598.89 614.085 1618.65 749.103 1601.34 881.919C1612.95 873.993 1623.39 864.48 1632.36 853.658L1816.07 620.794C1818.11 618.214 1820.83 616.26 1823.93 615.153C1827.03 614.046 1830.38 613.831 1833.59 614.532C1836.81 615.234 1839.76 616.823 1842.12 619.119C1844.47 621.416 1846.14 624.327 1846.92 627.523L1907.75 875.904C1935.39 963.735 1933.38 1058.22 1902.03 1144.79C1896.9 1158.61 1894.95 1173.41 1896.33 1188.09C1897.7 1202.76 1902.36 1216.94 1909.95 1229.57C1986.94 1357.87 2050.45 1493.78 2099.47 1635.15C2117.05 1668.93 2215.83 1850.12 2339.52 1872C2344.1 1872.81 2348.18 1875.4 2350.85 1879.21C2353.52 1883.02 2354.56 1887.74 2353.76 1892.32C2351.22 1905.88 2346.95 1919.05 2341.05 1931.51L2502.3 2003.7C2520.87 2012.01 2538.93 2021.4 2556.41 2031.8C2567.66 2038.3 2580.92 2040.39 2593.63 2037.66L2616.93 2033.08C2630.99 2030.32 2645.5 2030.87 2659.31 2034.67C2673.13 2038.47 2685.87 2045.42 2696.55 2054.98C2707.22 2064.55 2715.52 2076.45 2720.81 2089.77C2726.1 2103.09 2728.22 2117.45 2727.02 2131.73L2724.73 2159.06C2724.35 2163.66 2725.39 2168.27 2727.7 2172.26C2730.02 2176.25 2733.5 2179.44 2737.68 2181.4L2786.39 2203.92C2800.53 2210.47 2812.78 2220.48 2822.02 2233.03C2831.26 2245.57 2837.19 2260.24 2839.26 2275.69C2841.33 2291.13 2839.47 2306.84 2833.85 2321.38C2828.23 2335.91 2819.04 2348.79 2807.12 2358.83ZM524.879 1309.94C526.603 1294.28 534.472 1279.95 546.759 1270.09C559.045 1260.23 574.742 1255.65 590.402 1257.36L654.672 1264.09C719.995 1270.54 967.783 1235.34 992.5 1188.7L1026.24 1124.93C1064.05 1052.6 1121.22 943.288 1199.78 936.65L1207.88 935.981L1256.26 734.365C1256.94 731.534 1258.31 728.916 1260.25 726.75C1262.19 724.583 1264.65 722.937 1267.39 721.96C1270.13 720.936 1273.08 720.626 1275.97 721.059C1278.86 721.491 1281.59 722.652 1283.91 724.431L1291.47 730.108C1355.44 778.051 1404.8 842.857 1434.02 917.267L1502.18 911.625C1527.7 780.799 1510.42 645.233 1452.91 524.987C1451.53 525.653 1450.07 526.145 1448.57 526.449C1444.88 526.449 1441.3 525.293 1438.31 523.144C1435.32 520.996 1433.08 517.962 1431.9 514.473C1430.73 510.983 1430.68 507.213 1431.77 503.695C1432.85 500.176 1435.01 497.087 1437.95 494.863L1438.24 494.571C1388.07 402.06 1315.67 323.483 1227.57 265.919C1226.03 267.63 1224.16 269.019 1222.08 270.008C1220 270.997 1217.74 271.566 1215.44 271.682C1213.14 271.799 1210.84 271.46 1208.67 270.687C1206.5 269.913 1204.51 268.719 1202.8 267.173C1200.4 264.82 1198.78 261.791 1198.14 258.491C1197.51 255.191 1197.9 251.777 1199.26 248.704C1058.72 166.937 891.972 142.757 733.989 181.233C576.006 219.708 439.053 317.853 351.844 455.088C264.635 592.324 233.942 757.993 266.201 917.362C298.459 1076.73 391.164 1217.42 524.879 1309.94ZM775.439 1550.77L812.463 1671.22L828.228 1671.37L893.579 1636.98C970.712 1596.53 1059.78 1585.01 1144.66 1604.53L1291.38 1638.4C1304.48 1641.43 1318.16 1640.85 1330.97 1636.73C1343.77 1632.61 1355.23 1625.11 1364.11 1615.01L1448.89 1518.74C1461.77 1504 1469.6 1485.52 1471.23 1466.01C1472.86 1446.5 1468.21 1426.98 1457.96 1410.3L1400.69 1318.11C1394.26 1307.76 1385.76 1298.84 1375.74 1291.92C1365.71 1285 1354.36 1280.22 1342.41 1277.87C1330.45 1275.53 1318.14 1275.67 1306.24 1278.29C1294.34 1280.92 1283.11 1285.96 1273.25 1293.11L1140.73 1389.1C1071.2 1439.43 994.385 1478.81 912.943 1505.88C860.528 1523.32 814.846 1538.22 775.439 1550.77ZM2746.74 2287.1L2698.31 2266.45C2676.72 2256.4 2658.72 2239.97 2646.75 2219.38C2634.77 2198.79 2629.4 2175.02 2631.34 2151.28L2633.63 2123.91L2611.66 2129.67C2576.29 2136.8 2539.54 2130.64 2508.43 2112.37C2494.1 2103.81 2479.27 2096.11 2464.03 2089.3L2275.24 2004.77C2250.68 2018.95 2222.82 2026.41 2194.45 2026.4C2199.4 2060.32 2203.75 2097.49 2207.68 2139.38L2228.33 2363.5C2228.61 2366.65 2228.05 2369.83 2226.69 2372.69C2225.33 2375.54 2223.22 2377.99 2220.59 2379.75C2194.66 2397.02 2164.18 2406.19 2133.02 2406.12C2108.2 2406.16 2083.72 2400.4 2061.52 2389.3C2039.32 2378.19 2020.02 2362.06 2005.17 2342.17C2005.24 2397.61 1991.57 2452.2 1965.37 2501.05C1939.18 2549.91 1901.28 2591.51 1855.07 2622.14L1655.21 2754.75C1652.34 2756.67 1648.96 2757.69 1645.5 2757.68C1642.04 2757.69 1638.64 2756.67 1635.75 2754.75L1400.55 2598.42C1363.93 2574.2 1333.97 2541.16 1313.43 2502.35C1292.89 2463.53 1282.43 2420.18 1283 2376.27L1283.41 2336.67L1265.51 2354.02C1244.31 2374.27 1218.07 2388.48 1189.53 2395.19C1160.99 2401.9 1131.17 2400.85 1103.17 2392.17L1081.17 2413.72C1056.61 2437.64 1034.95 2464.39 1016.66 2493.4L985.906 2550.55C965.87 2595.38 953.478 2643.25 949.245 2692.17L947.099 2718.3C948.972 2728.04 951.633 2737.61 955.058 2746.92L990.187 2834.95H1044.39L1063.73 2706.87C1065.59 2694.57 1072.26 2683.52 1082.27 2676.14C1092.28 2668.76 1104.81 2665.65 1117.1 2667.51C1129.4 2669.37 1140.46 2676.03 1147.84 2686.04C1155.22 2696.05 1158.33 2708.58 1156.47 2720.88L1139.25 2834.95H2131.91L2115.44 2720.56C2114.55 2714.45 2114.86 2708.23 2116.38 2702.25C2117.89 2696.27 2120.57 2690.65 2124.26 2685.7C2127.95 2680.76 2132.57 2676.59 2137.88 2673.44C2143.18 2670.28 2149.05 2668.21 2155.16 2667.33C2161.26 2666.45 2167.48 2666.79 2173.46 2668.31C2179.44 2669.84 2185.05 2672.53 2189.99 2676.24C2194.92 2679.94 2199.08 2684.58 2202.22 2689.89C2205.35 2695.2 2207.41 2701.08 2208.28 2707.19L2226.67 2834.95H2642.05L2702.75 2564.55C2715.06 2509.58 2716.13 2452.68 2705.91 2397.28C2702.4 2376.95 2704.33 2356.05 2711.5 2336.7C2718.67 2317.35 2730.83 2300.24 2746.74 2287.1Z" class="color000000 svgShape"></path>
</svg>
